<?xml version="1.0" encoding="iso-8859-1"?>
<!-- Generator: Adobe Illustrator 19.0.0, SVG Export Plug-In . SVG Version: 6.00 Build 0)  -->
<svg version="1.1" id="Capa_1" xmlns="http://www.w3.org/2000/svg" xmlns:xlink="http://www.w3.org/1999/xlink" x="0px" y="0px"
	 viewBox="0 0 508.1 508.1" style="enable-background:new 0 0 508.1 508.1;" xml:space="preserve">
<path style="fill:#4CDBC4;" d="M68.05,0c-11.7,0-21.2,9.5-21.2,21.2v465.7c0,11.7,9.5,21.2,21.2,21.2h110V0H68.05z"/>
<path style="fill:#F2F2F2;" d="M486.85,0h-308.8v508h308.8c11.7,0,21.2-9.5,21.2-21.2V21.2C508.05,9.5,498.55,0,486.85,0z"/>
<g>
	<circle style="fill:#FFFFFF;" cx="92.15" cy="117.3" r="29.4"/>
	<circle style="fill:#FFFFFF;" cx="92.15" cy="254" r="29.4"/>
	<circle style="fill:#FFFFFF;" cx="92.15" cy="390.7" r="29.4"/>
</g>
<g>
	<path style="fill:#40596B;" d="M20.25,137.6h65.5c11.2,0,20.2-9.1,20.2-20.2s-9.1-20.2-20.2-20.2h-65.5c-11.1-0.1-20.2,9-20.2,20.1
		S9.15,137.6,20.25,137.6z"/>
	<path style="fill:#40596B;" d="M85.75,233.8h-65.5c-11.1,0-20.2,9-20.2,20.2c0,11.2,9.1,20.2,20.2,20.2h65.5
		c11.2,0,20.2-9.1,20.2-20.2C106.05,242.8,96.95,233.8,85.75,233.8z"/>
	<path style="fill:#40596B;" d="M85.75,370.4h-65.5c-11.2,0-20.2,9.1-20.2,20.2c0,11.2,9.1,20.2,20.2,20.2h65.5
		c11.2,0,20.2-9.1,20.2-20.2C106.05,379.5,96.95,370.4,85.75,370.4z"/>
</g>
<g>
	<circle style="fill:#ACB3BA;" cx="343.05" cy="186" r="58.6"/>
	<path style="fill:#ACB3BA;" d="M383.85,252c-11.9,7.4-25.8,11.8-40.7,11.8s-28.9-4.5-40.7-11.8c-44.3,16.5-76,59.2-76,109.3h233.4
		C459.75,311.2,428.15,268.5,383.85,252z"/>
</g>
<g>
</g>
<g>
</g>
<g>
</g>
<g>
</g>
<g>
</g>
<g>
</g>
<g>
</g>
<g>
</g>
<g>
</g>
<g>
</g>
<g>
</g>
<g>
</g>
<g>
</g>
<g>
</g>
<g>
</g>
</svg>
