<?xml version="1.0" encoding="iso-8859-1"?>
<!-- Generator: Adobe Illustrator 19.0.0, SVG Export Plug-In . SVG Version: 6.00 Build 0)  -->
<svg version="1.1" id="Capa_1" xmlns="http://www.w3.org/2000/svg" xmlns:xlink="http://www.w3.org/1999/xlink" x="0px" y="0px"
	 viewBox="0 0 508.076 508.076" style="enable-background:new 0 0 508.076 508.076;" xml:space="preserve">
<rect x="324.022" y="322.988" transform="matrix(-0.7093 0.7049 -0.7049 -0.7093 839.0201 349.3696)" style="fill:#334A5E;" width="46.9" height="49.4"/>
<path style="fill:#4CDBC4;" d="M492.214,420.064l-62.7-63.1c-20.1-20.2-52.8-20.3-73-0.2c-20.2,20.1-20.3,52.8-0.2,73l62.7,63.1
	c20.1,20.2,52.8,20.3,73,0.2C512.214,472.964,512.313,440.264,492.214,420.064z"/>
<path style="fill:#3DC9AE;" d="M492.014,493.064L492.014,493.064c-20.2,20.1-52.9,20-73-0.2l73.2-72.8
	C512.313,440.264,512.214,472.964,492.014,493.064z"/>
<path style="fill:#40596B;" d="M341.514,58.764c-77.5-78-204-78.4-281.9-0.9c-78,77.5-78.4,204-0.9,281.9
	c77.5,78,204,78.4,281.9,0.9C418.614,263.264,418.914,136.764,341.514,58.764z"/>
<path style="fill:#FFFFFF;" d="M310.814,89.264c-60.7-61-159.7-61.4-220.7-0.7s-61.4,159.7-0.7,220.7s159.7,61.3,220.7,0.7
	S371.414,150.364,310.814,89.264z"/>
<rect x="96.014" y="225.464" style="fill:#FF7058;" width="35.7" height="58.8"/>
<rect x="153.514" y="188.464" style="fill:#4CDBC4;" width="35.7" height="95.8"/>
<rect x="210.913" y="151.364" style="fill:#FFD15C;" width="35.7" height="132.9"/>
<rect x="268.314" y="114.364" style="fill:#ACB3BA;" width="35.7" height="169.9"/>
<g>
</g>
<g>
</g>
<g>
</g>
<g>
</g>
<g>
</g>
<g>
</g>
<g>
</g>
<g>
</g>
<g>
</g>
<g>
</g>
<g>
</g>
<g>
</g>
<g>
</g>
<g>
</g>
<g>
</g>
</svg>
