<?xml version="1.0" encoding="UTF-8" standalone="no"?>
<svg
   xmlns:dc="http://purl.org/dc/elements/1.1/"
   xmlns:cc="http://creativecommons.org/ns#"
   xmlns:rdf="http://www.w3.org/1999/02/22-rdf-syntax-ns#"
   xmlns:svg="http://www.w3.org/2000/svg"
   xmlns="http://www.w3.org/2000/svg"
   xmlns:sodipodi="http://sodipodi.sourceforge.net/DTD/sodipodi-0.dtd"
   xmlns:inkscape="http://www.inkscape.org/namespaces/inkscape"
   width="1920"
   height="1080"
   viewBox="0 0 508 285.75"
   version="1.1"
   id="svg2120"
   inkscape:version="1.0.1 (3bc2e813f5, 2020-09-07)"
   sodipodi:docname="bg-4.svg">
  <defs
     id="defs2114" />
  <sodipodi:namedview
     id="base"
     pagecolor="#ffffff"
     bordercolor="#666666"
     borderopacity="1.0"
     inkscape:pageopacity="0.0"
     inkscape:pageshadow="2"
     inkscape:zoom="0.35"
     inkscape:cx="833.33333"
     inkscape:cy="560"
     inkscape:document-units="mm"
     inkscape:current-layer="layer1"
     inkscape:document-rotation="0"
     showgrid="false"
     units="px"
     inkscape:window-width="1368"
     inkscape:window-height="892"
     inkscape:window-x="0"
     inkscape:window-y="0"
     inkscape:window-maximized="0" />
  <metadata
     id="metadata2117">
    <rdf:RDF>
      <cc:Work
         rdf:about="">
        <dc:format>image/svg+xml</dc:format>
        <dc:type
           rdf:resource="http://purl.org/dc/dcmitype/StillImage" />
        <dc:title></dc:title>
      </cc:Work>
    </rdf:RDF>
  </metadata>
  <g
     inkscape:label="レイヤー 1"
     inkscape:groupmode="layer"
     id="layer1">
    <path
       style="opacity:0.996087;fill:#e6b121;stroke-width:49.748;stroke-linecap:round;paint-order:markers fill stroke"
       d="m 135.35184,283.18248 c -18.84141,-1.40871 -39.275328,-4.69273 -48.174502,-7.74231 -27.894433,-9.55897 -41.799565,-31.50034 -40.460513,-63.84409 0.476165,-11.50129 1.083097,-14.2631 4.699138,-21.38295 7.066713,-13.91405 11.055786,-17.88272 23.707851,-23.5867 l 11.348237,-5.11617 34.623189,-0.45679 34.62315,-0.45678 8.52956,-3.62002 c 5.91937,-2.51225 10.81257,-5.90442 15.98995,-11.08494 8.9027,-8.90811 12.01375,-14.34947 19.60642,-34.29237 3.16059,-8.30161 6.87686,-17.15562 8.25835,-19.675537 5.76239,-10.510872 22.19869,-18.975188 37.22867,-19.171929 4.48063,-0.05866 18.53359,0.686822 31.22876,1.656602 45.37257,3.466021 58.71628,-0.701769 97.27306,-30.382364 22.8485,-17.588544 33.55231,-24.496044 52.08182,-33.610053 l 13.57773,-6.6783827 22.40323,0.6687754 c 18.05941,0.5390997 25.02027,1.2993299 35.90057,3.9208863 7.42354,1.788663 14.06196,3.775172 14.75205,4.414472 0.76779,0.711253 -0.43989,1.974162 -3.11185,3.254167 l -4.36656,2.091823 2.88519,2.845084 c 5.01111,4.941401 5.4429,9.226929 2.68724,26.670412 -8.12613,51.438536 -13.58596,94.986914 -15.47113,123.399494 -2.29844,34.64146 -3.56976,43.18485 -7.15257,48.06653 -1.95877,2.66893 -2.43941,6.81426 -2.81583,24.28674 -0.24963,11.58764 -0.72001,21.06845 -1.0453,21.06845 -0.32529,0 -2.98424,-1.3993 -5.9088,-3.10957 l -5.31737,-3.10964 -10.25529,4.32945 c -13.09152,5.52684 -21.14826,7.39017 -46.2657,10.70011 -11.20163,1.47616 -29.83704,4.09289 -41.41204,5.81491 -15.08712,2.24461 -30.46351,3.45393 -54.31086,4.2716 -40.10411,1.37507 -166.35254,1.28043 -185.33585,-0.13891 z"
       id="path1773" />
  </g>
</svg>
