<?xml version="1.0" encoding="UTF-8" standalone="no"?>
<svg
   xmlns:dc="http://purl.org/dc/elements/1.1/"
   xmlns:cc="http://creativecommons.org/ns#"
   xmlns:rdf="http://www.w3.org/1999/02/22-rdf-syntax-ns#"
   xmlns:svg="http://www.w3.org/2000/svg"
   xmlns="http://www.w3.org/2000/svg"
   xmlns:sodipodi="http://sodipodi.sourceforge.net/DTD/sodipodi-0.dtd"
   xmlns:inkscape="http://www.inkscape.org/namespaces/inkscape"
   width="1920"
   height="1080"
   viewBox="0 0 508 285.75"
   version="1.1"
   id="svg2709"
   inkscape:version="1.0.1 (3bc2e813f5, 2020-09-07)"
   sodipodi:docname="bg-5.svg">
  <defs
     id="defs2703" />
  <sodipodi:namedview
     id="base"
     pagecolor="#ffffff"
     bordercolor="#666666"
     borderopacity="1.0"
     inkscape:pageopacity="0.0"
     inkscape:pageshadow="2"
     inkscape:zoom="0.35"
     inkscape:cx="798.8638"
     inkscape:cy="560"
     inkscape:document-units="mm"
     inkscape:current-layer="layer1"
     inkscape:document-rotation="0"
     showgrid="false"
     units="px"
     inkscape:window-width="1368"
     inkscape:window-height="892"
     inkscape:window-x="0"
     inkscape:window-y="0"
     inkscape:window-maximized="0" />
  <metadata
     id="metadata2706">
    <rdf:RDF>
      <cc:Work
         rdf:about="">
        <dc:format>image/svg+xml</dc:format>
        <dc:type
           rdf:resource="http://purl.org/dc/dcmitype/StillImage" />
        <dc:title></dc:title>
      </cc:Work>
    </rdf:RDF>
  </metadata>
  <g
     inkscape:label="レイヤー 1"
     inkscape:groupmode="layer"
     id="layer1">
    <g
       id="g3294"
       transform="translate(28.431719)">
      <path
         style="opacity:0.996087;fill:#e6b121;stroke-width:33.0237;stroke-linecap:round;paint-order:markers fill stroke"
         id="path1623"
         d="m 273.75304,21.4646 c -14.17158,8.60138 -28.5124,20.84816 -35.32607,36.3156 -1.57738,3.58074 -2.23445,7.49975 -3.35162,11.24964 0.01,3.59952 -0.49437,7.23692 0.0262,10.79854 1.01871,6.96626 3.96685,12.55151 8.42911,17.88678 6.51914,7.79461 15.71768,12.79164 24.15139,18.14387 2.75652,2.02909 5.67872,3.85048 8.2695,6.08729 8.18573,7.06721 12.99788,14.53715 13.63202,25.63043 0.60412,10.56847 -1.84945,15.31396 -4.86057,25.55541 -0.18197,0.64526 -9.30694,-1.92778 -9.12503,-2.57301 v 0 c 1.54823,-3.95245 3.49831,-7.77021 4.64473,-11.85729 1.562,-5.56888 2.21759,-12.55426 0.28066,-18.21465 -2.94535,-8.60657 -11.47833,-13.47333 -18.37544,-18.3964 -9.36229,-5.93679 -19.17232,-11.58109 -26.15782,-20.46379 -5.0717,-6.449 -8.57712,-13.56366 -9.76908,-21.76398 -0.62297,-4.28535 -0.0564,-8.66059 -0.0843,-12.99086 1.24357,-4.39902 1.919,-8.99991 3.73051,-13.19706 6.70432,-15.53279 20.34917,-27.8293 35.54667,-34.74974 1.89948,-0.86493 3.93927,-1.380649 5.90886,-2.070967 0.32591,-0.17184 2.75606,4.438347 2.43005,4.610187 z" />
      <path
         style="opacity:0.996087;fill:#e6b121;stroke-width:33.0237;stroke-linecap:round;paint-order:markers fill stroke"
         id="path1625"
         d="m 187.85255,46.85135 c 2.86095,13.81285 4.91877,27.85937 9.38661,41.29644 1.17209,3.52526 2.68839,6.92656 4.03268,10.38985 4.40391,8.30701 8.56774,15.8146 16.95577,20.67074 1.6427,0.95107 3.52648,1.4059 5.2897,2.10884 0.41171,0.25673 -3.21847,6.0788 -3.63018,5.8221 v 0 c -2.31979,-0.85503 -4.79297,-1.37393 -6.95938,-2.56521 -9.45956,-5.20169 -15.2317,-13.9916 -19.98692,-23.36611 -1.43381,-3.71461 -3.09109,-7.35054 -4.30135,-11.14387 -1.20888,-3.78884 -2.11421,-7.67267 -2.94328,-11.56233 -2.18343,-10.24329 -3.1984,-20.72957 -2.72026,-31.19585 -0.0328,-0.34482 4.84444,-0.79942 4.87661,-0.4546 z" />
      <path
         style="opacity:0.996087;fill:#e6b121;stroke-width:33.0237;stroke-linecap:round;paint-order:markers fill stroke"
         id="path1627"
         d="m 164.97155,83.10485 c 1.957,8.01862 5.45246,15.45646 10.06394,22.30101 1.87582,2.78417 3.97934,5.40793 5.96896,8.11187 7.9992,9.73134 16.61127,18.9285 25.07668,28.24819 2.88886,3.1805 5.86581,6.28471 8.63916,9.56649 7.78795,9.21559 8.05963,10.24181 14.59663,20.1266 6.23011,12.51977 3.83327,6.39851 7.53995,18.22295 0.15672,0.50726 -7.01735,2.72104 -7.17384,2.21379 v 0 c -4.54339,-10.32588 -1.89775,-4.90012 -8.13209,-16.18071 -6.45235,-9.23218 -6.86164,-10.30188 -14.36929,-19.01188 -2.80406,-3.25309 -5.79164,-6.34333 -8.68158,-9.52042 -8.67974,-9.5419 -17.48424,-19.03215 -24.78362,-29.71276 -1.85247,-3.01509 -3.84688,-5.94742 -5.55735,-9.04526 -4.16455,-7.5423 -7.48066,-15.98253 -7.87044,-24.66605 -0.0459,-0.33112 4.63666,-0.98494 4.68289,-0.65382 z" />
      <path
         style="opacity:0.996087;fill:#e6b121;stroke-width:33.0237;stroke-linecap:round;paint-order:markers fill stroke"
         id="path1629"
         d="m 144.47757,47.7378 c -0.54139,8.60505 -1.74057,17.14886 -2.49678,25.73424 -0.31443,3.57067 -0.55155,7.14777 -0.82743,10.72166 -1.18891,18.78791 -2.27425,37.62458 -1.35859,56.45262 0.22788,4.68365 0.49031,9.37258 1.05045,14.02817 0.505,4.19705 1.42767,8.33327 2.14156,12.49986 2.27625,9.53681 5.93322,18.39138 12.73948,25.59693 5.6558,5.98754 13.11079,9.79599 20.12296,13.8915 11.73086,5.96778 23.34936,12.53701 36.01461,16.38274 9.1986,2.79302 10.91218,2.56652 20.30329,3.63818 3.19938,0.0518 6.39874,0.10394 9.59809,0.15575 0.5566,0.15082 -1.57643,8.02281 -2.133,7.87198 v 0 c -3.45198,-0.0531 -6.90396,-0.10656 -10.35604,-0.16 -10.32264,-1.30574 -11.89726,-1.00094 -21.90428,-4.32328 -12.85827,-4.26889 -24.64291,-11.29276 -36.5019,-17.68576 -7.58618,-4.60614 -15.46384,-9.10582 -21.69998,-15.55429 -7.73714,-8.00052 -12.44039,-17.71042 -15.40718,-28.36204 -0.90022,-4.41781 -2.04612,-8.7926 -2.70062,-13.25343 -1.47089,-10.02469 -1.71926,-19.80111 -1.6127,-29.91748 0.1482,-14.07521 1.37863,-28.12036 3.25965,-42.06252 1.81873,-12.23737 3.74937,-24.51621 7.1603,-36.42609 0.0548,-0.32591 4.6626,0.44532 4.60811,0.77116 z" />
      <path
         style="opacity:0.996087;fill:#e6b121;stroke-width:33.0237;stroke-linecap:round;paint-order:markers fill stroke"
         id="path1637"
         d="m 252.61304,152.1141 c 7.43627,13.94823 10.65133,29.63836 14.2821,44.87619 0.13181,0.72408 -10.10748,2.59009 -10.23942,1.86608 v 0 c -1.02297,-5.17842 -2.06752,-10.35254 -3.06889,-15.53512 -0.42145,-2.1807 -3.78209,-20.25257 -4.57637,-23.99262 -0.38958,-1.83463 -0.89759,-3.64219 -1.34636,-5.46331 -0.12394,-0.34991 4.82516,-2.1012 4.94894,-1.75122 z" />
      <path
         style="opacity:0.996087;fill:#e6b121;stroke-width:33.0237;stroke-linecap:round;paint-order:markers fill stroke"
         id="path1639"
         d="m 271.78693,210.67536 c 11.92214,4.87028 23.28985,11.72041 32.84728,20.40291 2.68039,2.43504 5.04255,5.1989 7.56379,7.79831 7.62339,10.85504 4.52731,5.26438 9.50681,16.64888 0.19312,0.49798 -6.84915,3.22902 -7.04223,2.73111 v 0 c -4.94533,-9.66413 -1.98346,-4.84929 -9.10031,-14.31027 -2.38202,-2.39018 -4.66218,-4.88644 -7.1462,-7.17049 -9.03749,-8.31036 -19.26061,-15.12308 -29.31406,-22.10281 -0.28263,-0.18984 2.40229,-4.18751 2.68492,-3.99764 z" />
    </g>
  </g>
</svg>
