<svg height="512" viewBox="0 0 512 512" width="512" xmlns="http://www.w3.org/2000/svg"><path d="m8.18 348.551a86.697 86.697 0 0 0 15.8233 50.0667 26.3619 26.3619 0 0 1 4.6816 14.66l.1491 46.6135.1209 36.0025a6.2806 6.2806 0 0 0 6.2734 5.9756h73.1128a6.2816 6.2816 0 0 0 6.2735-6.5713l.0093-25.131.0093-8.619h29.5429a20.6708 20.6708 0 0 0 20.347-16.996l9.9965-55.2139a4.91 4.91 0 0 1 4.3094-4.0116l13.0216-.3631a3.3873 3.3873 0 0 0 2.7181-4.7842l-12.2492-27.56c.0652-1.34.0465-6.9343.0465-6.9343a87.1164 87.1164 0 0 0 -174.186 2.8661z" fill="#ff628d"/><g fill="#f11760"><path d="m28.8338 459.8909.1209 36.0025a6.2806 6.2806 0 0 0 6.2734 5.9756h34.5227v-.5026a41.4677 41.4677 0 0 0 -40.917-41.4755z"/><path d="m88.6084 456.5028c.3722.4375 8.1723 9.4382 26.0153 13.6639l.0093-8.619h.0466c-13.8129-3.7045-19.6116-10.3782-19.6768-10.462a4.19 4.19 0 1 0 -6.3944 5.4171z"/><path d="m80.2944 445.2958a4.1886 4.1886 0 0 0 2.6832-7.4063c-2.6951-2.246-7.2117-8.2238-8.7242-10.3376a4.1888 4.1888 0 0 0 -6.8136 4.8743c.62.8667 6.1719 8.5629 10.1749 11.8988a4.1715 4.1715 0 0 0 2.6797.9708z"/><path d="m171.52 405.9309-1.64 9h-8.62a19.3779 19.3779 0 0 1 -8.04-1.73l-9.75-4.41a4.5022 4.5022 0 0 1 3.72-8.2l9.74 4.41a10.4032 10.4032 0 0 0 4.33.93z"/></g><path d="m503.82 59.881v226.53a9.0007 9.0007 0 0 1 -9 9h-206.74a9.0006 9.0006 0 0 1 -9-9v-1.79z" fill="#ff86a7"/><path d="m503.82 22.4808v37.4l-224.74 224.7402v-262.1402a9.0007 9.0007 0 0 1 9-9h206.74a9.0008 9.0008 0 0 1 9 9z" fill="#ff628d"/><path d="m503.8056 21.51v46.37h-224.71v-45.68a9.0007 9.0007 0 0 1 9-9h206.74a8.9929 8.9929 0 0 1 8.97 8.31z" fill="#ffd9e3"/><circle cx="475.563" cy="40.54" fill="#ff4b7c" r="5.572"/><circle cx="299.773" cy="40.54" fill="#ff4b7c" r="5.572"/><circle cx="319.64" cy="40.54" fill="#001e6e" r="5.572"/><circle cx="339.508" cy="40.54" fill="#001e6e" r="5.572"/><rect fill="#fff" height="109.5" rx="9" width="98.04" x="308.11" y="95.781"/><path d="m308.11 109.141v9h98.04v-9z" fill="#ffd9e3"/><path d="m279.08 109.141h29.03v9h-29.03z" fill="#f11760"/><path d="m457.97 295.4109h-9l-.01-73.95v-13.12l-.01-35.52v-46.37a8.9929 8.9929 0 0 0 -8.97-8.31h-33.83v-9h33.83a18.0661 18.0661 0 0 1 17.95 16.63l.02.34v46.71l.01 35.52v13.12z" fill="#f11760"/><path d="m448.98 364.4409a9.0007 9.0007 0 0 1 -9 9h-206.74a9.0008 9.0008 0 0 1 -9-9v-24.98l166.64-166.64h58.07l.01 35.52v13.12z" fill="#ffe79c"/><path d="m390.88 172.821-166.64 166.64v-166.64z" fill="#ffcd2c"/><path d="m448.95 126.4509v46.37h-58.07l53.52-53.52a8.9831 8.9831 0 0 1 4.55 7.15z" fill="#fff4d1"/><path d="m444.4 119.3009-53.52 53.52h-166.64v-45.68a9.0007 9.0007 0 0 1 9-9h206.74a8.908 8.908 0 0 1 4.42 1.16z" fill="#ffe79c"/><circle cx="420.708" cy="145.481" fill="#ff4b7c" r="5.572"/><circle cx="244.918" cy="145.481" fill="#ff4b7c" r="5.572"/><circle cx="264.785" cy="145.481" fill="#001e6e" r="5.572"/><circle cx="284.652" cy="145.481" fill="#001e6e" r="5.572"/><rect fill="#fff" height="109.5" rx="9" width="98.04" x="239.35" y="217.251"/><path d="m394.32 281.0008h-37.4463a4.5 4.5 0 0 1 0-9h37.4463a4.5 4.5 0 0 1 0 9z" fill="#001e6e"/><path d="m426.0275 304.41h-69.1538a4.5 4.5 0 0 1 0-9h69.1538a4.5 4.5 0 0 1 0 9z" fill="#ff4b7c"/><path d="m426.0275 327.82h-69.1538a4.5 4.5 0 0 1 0-9h69.1538a4.5 4.5 0 1 1 0 9z" fill="#ff4b7c"/><path d="m422.859 236.027-24.539-23.04 55.87-59.277 24.539 23.04z" fill="#fff"/><path d="m469.74 168.311-.01.01-48.13 51.05-.46-6.11-6.09-.07 48.12-51.04z" fill="#1a92ea"/><path d="m422.86 236.031-9.78.71-14.85-13.95.09-9.8 16.73.2 6.09.07.46 6.11z" fill="#ff4b7c"/><path d="m413.081 236.736-14.987 1.071.136-15.015z" fill="#001e6e"/><path d="m485.64 162.7308a16.78 16.78 0 0 1 -4.56 11.52l-2.35 2.5-8.99-8.44-6.57-6.16-8.98-8.44 2.35-2.5a16.83 16.83 0 0 1 29.1 11.52z" fill="#001e6e"/><path d="m422.86 236.0309-24.77 1.78.23-24.82 37.86-40.17h-12.37l-32.04 33.99a9.029 9.029 0 0 0 -2.45 6.09l-.23 24.82a9.0031 9.0031 0 0 0 9 9.09c.22 0 .43-.01.65-.03l24.76-1.78a9.014 9.014 0 0 0 5.91-2.8l19.55-20.74v-13.12z" fill="#ffa312"/><path d="m448.95 146.391v12.88l-12.77 13.55h-12.37l23.83-25.28a8.8321 8.8321 0 0 1 1.31-1.15z" fill="#ffcd2c"/><path d="m426.0275 281.0008h-12.9463a4.5 4.5 0 0 1 0-9h12.9463a4.5 4.5 0 0 1 0 9z" fill="#001e6e"/><path d="m300.61 309.7408h-61.26v-15.52l19.22-35.04a8.1578 8.1578 0 0 1 14.3 0z" fill="#1a92ea"/><path d="m337.39 297.3009v12.44h-56.64a3.7376 3.7376 0 0 1 -3.28-5.53l24.71-45.03a8.1494 8.1494 0 0 1 14.29 0z" fill="#78bff3"/><circle cx="287.419" cy="237.807" fill="#ff9612" r="11.395"/><path d="m239.346 305.244h98.044v9h-98.044z" fill="#006837"/><path d="m91.133 247.1236a4.5 4.5 0 0 1 -4.5-4.5v-17.0175a4.5 4.5 0 0 1 9 0v17.0175a4.5 4.5 0 0 1 -4.5 4.5z" fill="#1a92ea"/><path d="m91.133 210.9127a4.5 4.5 0 0 1 -4.5-4.5v-17.0176a4.5 4.5 0 0 1 9 0v17.0176a4.5 4.5 0 0 1 -4.5 4.5z" fill="#1a92ea"/><path d="m216.3639 57.943h-17.0171a4.5 4.5 0 0 1 0-9h17.0171a4.5 4.5 0 0 1 0 9z" fill="#1a92ea"/><path d="m252.5744 57.943h-17.0171a4.5 4.5 0 0 1 0-9h17.0171a4.5 4.5 0 1 1 0 9z" fill="#1a92ea"/><path d="m169.26 86.2609c0 1.51-.04 3.01-.14 4.5a75.34 75.34 0 0 1 -5.87 25.19 76.2637 76.2637 0 0 1 -40.16 40.32 75.155 75.155 0 0 1 -17.87 5.16 72.7286 72.7286 0 0 1 -7.59.82c-1.49.1-2.99.14-4.5.14s-3.01-.04-4.5-.14a72.8338 72.8338 0 0 1 -7.58-.82 75.1954 75.1954 0 0 1 -17.89-5.17 76.0041 76.0041 0 0 1 -24.14-16.46l107.65-107.65a76.1993 76.1993 0 0 1 11.04 13.79 75.3952 75.3952 0 0 1 11.41 35.82c.1 1.4899.14 2.9899.14 4.5z" fill="#78bff3"/><path d="m146.67 32.1509-107.65 107.65a76.2191 76.2191 0 0 1 -11.46-14.85 75.4477 75.4477 0 0 1 -10.42-34.19c-.1-1.49-.14-2.99-.14-4.5s.04-3.01.14-4.5a76.022 76.022 0 0 1 63.92-70.67 72.4034 72.4034 0 0 1 7.57-.82c1.49-.1 2.99-.14 4.5-.14s3.01.04 4.5.14a72.6937 72.6937 0 0 1 7.57.82 75.1417 75.1417 0 0 1 17.87 5.15 76.0715 76.0715 0 0 1 23.6 15.91z" fill="#1a92ea"/><path d="m123.07 16.2408a75.1417 75.1417 0 0 0 -17.87-5.15c9.18 6 17.01 18.61 21.99 34.85h-29.56v-35.67c-1.49-.1-2.99-.14-4.5-.14s-3.01.04-4.5.14v35.67h-29.55c4.97-16.23 12.8-28.84 21.98-34.85a75.3947 75.3947 0 0 0 -17.86 5.15c-5.7 7.87-10.36 18-13.64 29.7h-21.01a75.3544 75.3544 0 0 0 -4.83 9h23.66a154.83 154.83 0 0 0 -3.01 26.82h-27.23c-.1 1.49-.14 2.99-.14 4.5s.04 3.01.14 4.5h27.23a155.0179 155.0179 0 0 0 2.69 25.19h-24.05a75.1161 75.1161 0 0 0 4.55 9h21.54q.4948 1.89 1.05 3.72l12.72-12.72h-6.53a143.2811 143.2811 0 0 1 -2.96-25.19h34.68l9.57-9.57v-26.25h26.25l11.95-11.95a91.3568 91.3568 0 0 0 -12.76-26.75zm-34.44 65.52h-35.25a142.5659 142.5659 0 0 1 3.32-26.82h31.93z" fill="#264084"/><path d="m169.12 90.7609c.1-1.49.14-2.99.14-4.5s-.04-3.01-.14-4.5h-27.22a153.8111 153.8111 0 0 0 -3.02-26.82h23.66a75.3974 75.3974 0 0 0 -4.83-9h-21.01c-.28-1-.57-1.98-.87-2.95l-11.95 11.95h5.68a142.5523 142.5523 0 0 1 3.33 26.82h-35.26v-.57l-9.57 9.57h.57v25.19h-25.76l-12.72 12.72c3.22 10.8 7.66 20.19 13.01 27.59a75.1954 75.1954 0 0 0 17.89 5.17c-9.47-6.22-17.5-19.47-22.45-36.48h30.03v37.3c1.49.1 2.99.14 4.5.14s3.01-.04 4.5-.14v-37.3h30.04c-4.95 17.01-12.98 30.26-22.45 36.48a75.155 75.155 0 0 0 17.87-5.16c5.96-8.24 10.79-18.94 14.07-31.32h21.55a76.5629 76.5629 0 0 0 4.54-9h-24.04a156.1378 156.1378 0 0 0 2.69-25.19zm-39.2 25.19h-32.29v-25.19h35.26a143.2377 143.2377 0 0 1 -2.97 25.19z" fill="#1a6fd0"/></svg>