<?xml version="1.0" encoding="iso-8859-1"?>
<!-- Generator: Adobe Illustrator 19.0.0, SVG Export Plug-In . SVG Version: 6.00 Build 0)  -->
<svg version="1.1" id="Capa_1" xmlns="http://www.w3.org/2000/svg" xmlns:xlink="http://www.w3.org/1999/xlink" x="0px" y="0px"
	 viewBox="0 0 508.1 508.1" style="enable-background:new 0 0 508.1 508.1;" xml:space="preserve">
<path style="fill:#F2F2F2;" d="M0,139.3v347.6c0,11.7,9.5,21.2,21.2,21.2h465.7c11.7,0,21.2-9.5,21.2-21.2V139.3H0z"/>
<path style="fill:#ACB3BA;" d="M486.8,28.2H21.2C9.5,28.2,0,37.7,0,49.3v89.9h508V49.3C508,37.7,498.5,28.2,486.8,28.2z"/>
<g>
	<circle style="fill:#FFFFFF;" cx="82.5" cy="83.7" r="20.9"/>
	<circle style="fill:#FFFFFF;" cx="168.2" cy="83.7" r="20.9"/>
	<circle style="fill:#FFFFFF;" cx="254" cy="83.7" r="20.9"/>
	<circle style="fill:#FFFFFF;" cx="339.8" cy="83.7" r="20.9"/>
	<circle style="fill:#FFFFFF;" cx="425.5" cy="83.7" r="20.9"/>
</g>
<g>
	<path style="fill:#40596B;" d="M267.2,87.2h-26.4c-0.8,0-1.4-0.6-1.4-1.4V1.4c0-0.8,0.6-1.4,1.4-1.4h26.4c0.8,0,1.4,0.6,1.4,1.4
		v84.4C268.6,86.6,268,87.2,267.2,87.2z"/>
	<path style="fill:#40596B;" d="M181.5,87.2H155c-0.8,0-1.4-0.6-1.4-1.4V1.4c0-0.8,0.6-1.4,1.4-1.4h26.4c0.8,0,1.4,0.6,1.4,1.4v84.4
		C182.8,86.6,182.2,87.2,181.5,87.2z"/>
	<path style="fill:#40596B;" d="M95.7,87.2H69.3c-0.8,0-1.4-0.6-1.4-1.4V1.4c0-0.8,0.6-1.4,1.4-1.4h26.4c0.8,0,1.4,0.6,1.4,1.4v84.4
		C97.1,86.6,96.5,87.2,95.7,87.2z"/>
	<path style="fill:#40596B;" d="M353,87.2h-26.4c-0.8,0-1.4-0.6-1.4-1.4V1.4c0-0.8,0.6-1.4,1.4-1.4H353c0.8,0,1.4,0.6,1.4,1.4v84.4
		C354.3,86.6,353.7,87.2,353,87.2z"/>
	<path style="fill:#40596B;" d="M438.7,87.2h-26.4c-0.8,0-1.4-0.6-1.4-1.4V1.4c0-0.8,0.6-1.4,1.4-1.4h26.4c0.8,0,1.4,0.6,1.4,1.4
		v84.4C440.1,86.6,439.5,87.2,438.7,87.2z"/>
</g>
<g>
	<rect x="190.5" y="181.6" style="fill:#4CDBC4;" width="127" height="80.6"/>
	<rect x="338.7" y="181.6" style="fill:#4CDBC4;" width="127" height="80.6"/>
	<rect x="42.3" y="283.3" style="fill:#4CDBC4;" width="127" height="80.6"/>
	<rect x="190.5" y="283.3" style="fill:#4CDBC4;" width="127" height="80.6"/>
	<rect x="338.7" y="283.3" style="fill:#4CDBC4;" width="127" height="80.6"/>
	<rect x="42.3" y="385.1" style="fill:#4CDBC4;" width="127" height="80.6"/>
	<rect x="190.5" y="385.1" style="fill:#4CDBC4;" width="127" height="80.6"/>
	<rect x="338.7" y="385.1" style="fill:#4CDBC4;" width="127" height="80.6"/>
</g>
<g>
</g>
<g>
</g>
<g>
</g>
<g>
</g>
<g>
</g>
<g>
</g>
<g>
</g>
<g>
</g>
<g>
</g>
<g>
</g>
<g>
</g>
<g>
</g>
<g>
</g>
<g>
</g>
<g>
</g>
</svg>
