<?xml version="1.0" encoding="iso-8859-1"?>
<!-- Generator: Adobe Illustrator 19.0.0, SVG Export Plug-In . SVG Version: 6.00 Build 0)  -->
<svg version="1.1" id="Capa_1" xmlns="http://www.w3.org/2000/svg" xmlns:xlink="http://www.w3.org/1999/xlink" x="0px" y="0px"
	 viewBox="0 0 508.1 508.1" style="enable-background:new 0 0 508.1 508.1;" xml:space="preserve">
<path style="fill:#4CDBC4;" d="M0,180.238v293.8c0,10.2,4.5,19.3,11.6,25.5c5.9,5.2,13.7,8.4,22.3,8.4h440.3
	c8.6,0,16.4-3.2,22.3-8.4c7.1-6.2,11.6-15.4,11.6-25.5v-293.8H0z"/>
<path style="fill:#3DC9AE;" d="M254,324.438l-242.4,175.1c5.9,5.2,13.7,8.4,22.3,8.4h440.3c8.6,0,16.4-3.2,22.3-8.4L254,324.438z"/>
<path style="fill:#ACB3BA;" d="M433.4,124.938L326,45.238l-51.8-38.4c-12-8.9-28.4-8.9-40.4,0l-51.8,38.4l-107.5,79.8L0,180.238
	l74.5,55.3l159.3,118.2c12,8.9,28.4,8.9,40.4,0l159.3-118.1l74.6-55.3L433.4,124.938z"/>
<path style="fill:#F2F2F2;" d="M433.4,45.238v190.3l-159.2,118.2c-12,8.9-28.4,8.9-40.4,0l-159.3-118.2v-190.3H433.4z"/>
<path style="fill:#F2F2F2;" d="M316.6,213.038h17.7c-5.6,11.3-14.1,20.1-25.6,26.5c-13.2,7.3-29.2,11-48.1,11
	c-18.3,0-34.2-3.1-47.5-9.3s-23.2-15.3-29.7-27.4c-6.5-12.1-9.7-25.2-9.7-39.4c0-15.6,3.7-30.1,11.1-43.6
	c7.4-13.5,17.5-23.6,30.3-30.3c12.8-6.7,27.5-10.1,44-10.1c14,0,26.4,2.7,37.3,8.2c10.9,5.4,19.2,13.2,24.9,23.2s8.6,21,8.6,32.9
	c0,14.2-4.4,27-13.1,38.4c-10.9,14.4-25,21.7-42.1,21.7c-4.6,0-8.1-0.8-10.4-2.4s-3.9-4-4.7-7.1c-6.6,6.3-14.1,9.5-22.7,9.5
	c-9.2,0-16.9-3.2-22.9-9.5c-6.1-6.4-9.1-14.8-9.1-25.4c0-13,3.7-25,11-35.7c8.9-13.1,20.3-19.7,34.2-19.7c9.9,0,17.2,3.8,21.9,11.3
	l2.1-9.2h22l-12.6,59.7c-0.8,3.8-1.2,6.2-1.2,7.3c0,1.4,0.3,2.4,1,3.1s1.4,1,2.3,1c2.7,0,6.1-1.6,10.3-4.8c5.7-4.2,10.2-9.9,13.7-17
	s5.2-14.5,5.2-22.1c0-13.7-4.9-25.1-14.8-34.3s-23.7-13.8-41.4-13.8c-15,0-27.8,3.1-38.3,9.2s-18.4,14.8-23.7,25.9
	c-5.3,11.1-8,22.7-8,34.8c0,11.7,3,22.4,8.9,32s14.2,16.6,24.9,21s22.9,6.6,36.7,6.6c13.3,0,24.7-1.8,34.2-5.5
	C303,225.938,310.7,220.438,316.6,213.038z M226.5,178.738c0,7.1,1.4,12.2,4.3,15.6c2.9,3.3,6.4,5,10.6,5c3.2,0,6.1-0.8,8.9-2.3
	c2.1-1.1,4.2-2.9,6.2-5.2c2.9-3.4,5.5-8.3,7.6-14.8s3.2-12.5,3.2-18.2c0-6.3-1.5-11.1-4.4-14.5s-6.6-5-11-5c-4.8,0-9.2,1.8-13.2,5.5
	c-4.1,3.7-7.1,9-9.2,15.8C227.6,167.438,226.5,173.538,226.5,178.738z"/>
<g>
</g>
<g>
</g>
<g>
</g>
<g>
</g>
<g>
</g>
<g>
</g>
<g>
</g>
<g>
</g>
<g>
</g>
<g>
</g>
<g>
</g>
<g>
</g>
<g>
</g>
<g>
</g>
<g>
</g>
</svg>
