<?xml version="1.0" encoding="iso-8859-1"?>
<!-- Generator: Adobe Illustrator 19.0.0, SVG Export Plug-In . SVG Version: 6.00 Build 0)  -->
<svg version="1.1" id="Capa_1" xmlns="http://www.w3.org/2000/svg" xmlns:xlink="http://www.w3.org/1999/xlink" x="0px" y="0px"
	 viewBox="0 0 508 508" style="enable-background:new 0 0 508 508;" xml:space="preserve">
<g>
	<path style="fill:#4CDBC4;" d="M172.4,118.1v207.5H89.3c-33.7,0-63-18.6-78.2-46.1c-3.9-7.1-7-14.9-8.8-23.1
		C0.8,249.9,0,243.2,0,236.3v-28.9c0-6.9,0.7-13.7,2.3-20.1c1.8-8.1,4.9-16,8.8-23.1c15.2-27.5,44.6-46.1,78.2-46.1H172.4z"/>
	<path style="fill:#4CDBC4;" d="M429,0h-6.2c-10.7,0-19.3,8.6-19.3,19.3v405c0,10.7,8.6,19.3,19.3,19.3h6.2
		c10.7,0,19.3-8.6,19.3-19.3v-405C448.3,8.6,439.7,0,429,0z"/>
</g>
<polygon style="fill:#F2F2F2;" points="403.5,19.3 172.4,118 172.4,325.6 403.5,424.3 "/>
<path style="fill:#CDD6E0;" d="M448.3,142.2v159.2c34.5-10.1,59.7-41.9,59.7-79.6S482.8,152.3,448.3,142.2z"/>
<path style="fill:#40596B;" d="M179.1,444.9l-15.3-119.3H89.3c-14.2,0-27.6-3.4-39.5-9.3l18.4,142.9c3.6,27.9,27.3,48.8,55.5,48.8
	C157.4,508,183.4,478.4,179.1,444.9z"/>
<g>
	<path style="fill:#F2F2F2;" d="M65.4,175.7c0,6.3-5.2,11.5-11.5,11.5H2.3c1.8-8.1,4.9-16,8.8-23.1h42.8
		C60.2,164.2,65.4,169.4,65.4,175.7z"/>
	<path style="fill:#F2F2F2;" d="M65.4,221.8c0,6.5-5.2,11.5-11.5,11.5H0v-23.1h53.9C60.2,210.2,65.4,215.4,65.4,221.8z"/>
	<path style="fill:#F2F2F2;" d="M65.4,267.9c0,6.3-5.2,11.5-11.5,11.5H11.1c-3.9-7.1-7-14.9-8.8-23.1h51.5
		C60.2,256.4,65.4,261.6,65.4,267.9z"/>
</g>
<polygon style="fill:#FF7058;" points="167.1,351.6 174.9,412.2 178.4,412.2 189.7,351.6 "/>
<g>
</g>
<g>
</g>
<g>
</g>
<g>
</g>
<g>
</g>
<g>
</g>
<g>
</g>
<g>
</g>
<g>
</g>
<g>
</g>
<g>
</g>
<g>
</g>
<g>
</g>
<g>
</g>
<g>
</g>
</svg>
