<?xml version="1.0" encoding="iso-8859-1"?>
<!-- Generator: Adobe Illustrator 19.0.0, SVG Export Plug-In . SVG Version: 6.00 Build 0)  -->
<svg version="1.1" id="Capa_1" xmlns="http://www.w3.org/2000/svg" xmlns:xlink="http://www.w3.org/1999/xlink" x="0px" y="0px"
	 viewBox="0 0 508 508" style="enable-background:new 0 0 508 508;" xml:space="preserve">
<circle style="fill:#F8B64C;" cx="254" cy="254" r="175.1"/>
<circle style="fill:#FFD15C;" cx="254" cy="254" r="149.6"/>
<circle style="fill:#F8B64C;" cx="254" cy="254" r="120.8"/>
<path style="fill:#FFD15C;" d="M247.1,300.3v-41.1c-12.8-3.7-22.2-9.2-28.2-16.6c-6-7.4-9-16.4-9-27c0-10.7,3.4-19.7,10.1-27
	c6.8-7.3,15.8-11.5,27-12.6v-9.7h14.2v9.7c10.4,1.2,18.7,4.8,24.8,10.6c6.1,5.9,10.1,13.7,11.8,23.5l-24.8,3.2
	c-1.5-7.7-5.4-12.9-11.8-15.7V236c15.7,4.2,26.4,9.8,32.1,16.5c5.7,6.8,8.5,15.4,8.5,26c0,11.8-3.6,21.8-10.7,29.9
	c-7.2,8.1-17.1,13.1-29.9,14.9v18.3H247v-17.8c-11.3-1.4-20.5-5.6-27.6-12.7s-11.6-17-13.5-29.9l25.6-2.7c1,5.2,3,9.7,5.9,13.5
	C240.4,295.9,243.6,298.6,247.1,300.3z M247.1,197.4c-3.9,1.3-6.9,3.5-9.2,6.7c-2.3,3.1-3.4,6.6-3.4,10.4c0,3.5,1,6.7,3.1,9.7
	s5.3,5.4,9.5,7.2L247.1,197.4L247.1,197.4z M261.4,301.7c4.9-0.9,8.9-3.2,12-6.8c3.1-3.6,4.6-7.9,4.6-12.8c0-4.4-1.3-8.2-3.9-11.3
	c-2.6-3.2-6.8-5.6-12.7-7.3V301.7z"/>
<g>
	<rect x="250" style="fill:#F2F2F2;" width="7.9" height="59.3"/>
	<rect x="250" y="448.7" style="fill:#F2F2F2;" width="7.9" height="59.3"/>
	<polygon style="fill:#F2F2F2;" points="209.7,25.4 216.3,62.9 224.1,61.5 217.5,24 	"/>
	<polygon style="fill:#F2F2F2;" points="283.9,446.4 290.5,484 298.3,482.6 291.7,445.1 	"/>
	<polygon style="fill:#F2F2F2;" points="163.4,16.7 183.7,72.4 191.1,69.7 170.9,14 	"/>
	<polygon style="fill:#F2F2F2;" points="316.9,438.3 337.1,494 344.6,491.3 324.3,435.6 	"/>
	<polygon style="fill:#F2F2F2;" points="134.1,54.3 153.2,87.4 160.1,83.4 141,50.4 	"/>
	<polygon style="fill:#F2F2F2;" points="347.9,424.6 367,457.6 373.9,453.6 354.8,420.6 	"/>
	<polygon style="fill:#F2F2F2;" points="87.7,62 125.8,107.4 131.9,102.3 93.8,56.9 	"/>
	<polygon style="fill:#F2F2F2;" points="376.1,405.7 414.2,451.1 420.3,446 382.2,400.6 	"/>
	<polygon style="fill:#F2F2F2;" points="107.4,125.8 78.2,101.3 73.1,107.4 102.3,131.9 	"/>
	<polygon style="fill:#F2F2F2;" points="400.6,382.2 429.8,406.7 434.9,400.6 405.7,376.1 	"/>
	<polygon style="fill:#F2F2F2;" points="87.4,153.2 36,123.6 32,130.4 83.4,160.1 	"/>
	<polygon style="fill:#F2F2F2;" points="420.7,354.8 472,384.4 476,377.6 424.6,347.9 	"/>
	<polygon style="fill:#F2F2F2;" points="36.6,170.6 33.9,178.1 69.7,191.1 72.4,183.7 	"/>
	<polygon style="fill:#F2F2F2;" points="62.9,216.3 4.6,206 3.2,213.8 61.6,224.1 	"/>
	<polygon style="fill:#F2F2F2;" points="445.1,291.7 503.4,302 504.8,294.2 446.4,283.9 	"/>
	<rect x="21.2" y="250" style="fill:#F2F2F2;" width="38.1" height="7.9"/>
	<rect x="448.7" y="250" style="fill:#F2F2F2;" width="38.1" height="7.9"/>
	<polygon style="fill:#F2F2F2;" points="61.6,283.9 3.2,294.2 4.6,302 62.9,291.7 	"/>
	<polygon style="fill:#F2F2F2;" points="446.4,224.1 504.8,213.8 503.4,206 445.1,216.3 	"/>
	<polygon style="fill:#F2F2F2;" points="33.9,329.9 36.6,337.4 72.4,324.3 69.7,316.9 	"/>
	<polygon style="fill:#F2F2F2;" points="471.4,170.6 435.6,183.7 438.3,191.1 474.1,178.1 	"/>
	<polygon style="fill:#F2F2F2;" points="83.4,347.9 32,377.6 36,384.4 87.4,354.8 	"/>
	<polygon style="fill:#F2F2F2;" points="424.6,160.1 476,130.4 472,123.6 420.7,153.2 	"/>
	<polygon style="fill:#F2F2F2;" points="102.3,376.1 73.1,400.6 78.2,406.7 107.4,382.2 	"/>
	<polygon style="fill:#F2F2F2;" points="405.7,131.9 434.9,107.4 429.8,101.3 400.6,125.8 	"/>
	<polygon style="fill:#F2F2F2;" points="125.8,400.6 87.7,446 93.8,451.1 131.9,405.7 	"/>
	<polygon style="fill:#F2F2F2;" points="382.2,107.4 420.3,62 414.2,56.9 376.1,102.3 	"/>
	<polygon style="fill:#F2F2F2;" points="134.1,453.6 141,457.6 160.1,424.6 153.2,420.6 	"/>
	<polygon style="fill:#F2F2F2;" points="367,50.4 347.9,83.4 354.8,87.4 373.9,54.3 	"/>
	<polygon style="fill:#F2F2F2;" points="163.4,491.3 170.9,494 191.1,438.3 183.7,435.6 	"/>
	<polygon style="fill:#F2F2F2;" points="337.1,14 316.9,69.7 324.3,72.4 344.6,16.7 	"/>
	<polygon style="fill:#F2F2F2;" points="209.7,482.6 217.5,484 224.1,446.4 216.3,445.1 	"/>
	<polygon style="fill:#F2F2F2;" points="290.5,24 283.9,61.5 291.7,62.9 298.3,25.4 	"/>
</g>
<g>
</g>
<g>
</g>
<g>
</g>
<g>
</g>
<g>
</g>
<g>
</g>
<g>
</g>
<g>
</g>
<g>
</g>
<g>
</g>
<g>
</g>
<g>
</g>
<g>
</g>
<g>
</g>
<g>
</g>
</svg>
