<?xml version="1.0" encoding="iso-8859-1"?>
<!-- Generator: Adobe Illustrator 19.0.0, SVG Export Plug-In . SVG Version: 6.00 Build 0)  -->
<svg version="1.1" id="Capa_1" xmlns="http://www.w3.org/2000/svg" xmlns:xlink="http://www.w3.org/1999/xlink" x="0px" y="0px"
	 viewBox="0 0 508 508" style="enable-background:new 0 0 508 508;" xml:space="preserve">
<path style="fill:#ACB3BA;" d="M425.6,281.4v185.5c0,22.7,18.4,41.1,41.1,41.1h0.2c22.7,0,41.1-18.4,41.1-41.1V281.4H425.6z"/>
<path style="fill:#F2F2F2;" d="M425.6,466.8v-29.3v-156V109.9L315.7,0H33.9C15.2,0,0,15.2,0,33.9v452.9C0,498.5,9.5,508,21.2,508
	h445.5C444,508,425.6,489.5,425.6,466.8z"/>
<g>
	<rect x="233.4" y="206.4" style="fill:#4CDBC4;" width="140.6" height="23.1"/>
	<rect x="233.4" y="278.5" style="fill:#4CDBC4;" width="140.6" height="23.1"/>
</g>
<g>
	<rect x="51.6" y="350.6" style="fill:#CDD6E0;" width="322.3" height="23.1"/>
	<rect x="51.6" y="422.6" style="fill:#CDD6E0;" width="322.3" height="23.1"/>
</g>
<rect x="51.6" y="28.3" style="fill:#FF7058;" width="278.4" height="53.3"/>
<path style="fill:#CDD6E0;" d="M315.7,88.6c0,11.7,9.5,21.2,21.2,21.2h88.6L315.7,0V88.6z"/>
<rect x="51.6" y="135.6" style="fill:#84DBFF;" width="145.8" height="165.3"/>
<g>
	<circle style="fill:#FFFFFF;" cx="124.5" cy="188" r="33.3"/>
	<path style="fill:#FFFFFF;" d="M150.6,223.5c-7.3,5.4-16.3,8.6-26.1,8.6s-18.8-3.2-26.1-8.6c-16.6,9.2-27.9,26.9-27.9,47.2v11.1
		h107.9v-11.1C178.5,250.4,167.2,232.7,150.6,223.5z"/>
</g>
<g>
</g>
<g>
</g>
<g>
</g>
<g>
</g>
<g>
</g>
<g>
</g>
<g>
</g>
<g>
</g>
<g>
</g>
<g>
</g>
<g>
</g>
<g>
</g>
<g>
</g>
<g>
</g>
<g>
</g>
</svg>
