<?xml version="1.0" encoding="iso-8859-1"?>
<!-- Generator: Adobe Illustrator 19.0.0, SVG Export Plug-In . SVG Version: 6.00 Build 0)  -->
<svg version="1.1" id="Capa_1" xmlns="http://www.w3.org/2000/svg" xmlns:xlink="http://www.w3.org/1999/xlink" x="0px" y="0px"
	 viewBox="0 0 511.494 511.494" style="enable-background:new 0 0 511.494 511.494;" xml:space="preserve">
<path style="fill:#FFD15C;" d="M186.171,58.161c0,0,4.267,14.933,6.4,18.133h-1.067v7.467l8.533,10.667l23.467,6.4l14.933-9.6
	l-1.067-13.867v-1.067c0,0,4.267-11.733,4.267-19.2c1.067-7.467,0-17.067,0-17.067s-1.067-21.333-9.6-25.6
	s-11.733-5.333-11.733-5.333s-29.867,1.067-33.067,7.467S182.971,49.628,186.171,58.161z"/>
<path style="fill:#F5B54C;" d="M225.638,88.028c-11.733,9.6-21.333-2.133-24.533-4.267c-2.133-2.133-8.533-7.467-8.533-7.467h-1.067
	l0,7.467l6.4,7.467l2.133,3.2l23.467,6.4l14.933-9.6l-1.067-13.867v-1.067C234.171,79.494,230.971,83.761,225.638,88.028z"/>
<path style="fill:#425A6B;" d="M178.705,454.961c2.133,7.467,12.8,37.333,19.2,56.533h41.6c-1.067-18.133-3.2-43.733-5.333-50.133
	c-4.267-11.733-8.533-43.733-9.6-58.667s3.2-60.8,7.467-69.333c4.267-8.533,5.333-12.8,5.333-12.8l-32-5.333l-41.6,3.2
	c0,0-1.067,29.867,2.133,61.867S175.505,444.294,178.705,454.961z"/>
<path style="fill:#E8EAE8;" d="M132.838,255.494c0,0,4.267,6.4,8.533,7.467c4.267,1.067,23.467-23.467,18.133-33.067
	c-5.333-10.667-21.333-8.533-21.333-8.533S122.171,239.494,132.838,255.494z"/>
<path style="fill:#425A6B;" d="M159.505,172.294c0,0-2.133,33.067-2.133,40.533c0,7.467,0,7.467,0,7.467s-14.933-4.267-19.2,3.2
	c-4.267,7.467-7.467,28.8-2.133,36.267c0,0,3.2,3.2,5.333,3.2c0,0-4.267,0-7.467-2.133c-3.2-1.067-19.2-22.4-22.4-26.667
	c-2.133-4.267-6.4-16-4.267-19.2c2.133-4.267,4.267-9.6,5.333-12.8c1.067-4.267,7.467-19.2,9.6-32
	c2.133-11.733,9.6-39.467,10.667-44.8c1.067-5.333,3.2-17.067,7.467-14.933c4.267,2.133,11.733,4.267,11.733,4.267
	S169.105,156.294,159.505,172.294z"/>
<path style="fill:#344A5E;" d="M157.371,219.228c0,0,0,0,0-7.467c0-2.133,0-8.533,1.067-16c-2.133,8.533-5.333,8.533-10.667,6.4
	c-5.333,0-27.733,0-27.733,0s0,0,7.467,1.067c7.467,1.067,14.933,2.133,14.933,2.133s-8.533,0-14.933-1.067
	c-6.4-1.067-12.8,1.067-12.8,1.067s6.4-1.067,10.667,0s7.467,3.2,9.6,4.267c2.133,2.133,8.533,4.267,11.733,6.4
	c1.067,1.067,2.133,2.133,4.267,3.2C155.238,219.228,157.371,219.228,157.371,219.228z"/>
<path id="SVGCleanerId_0" style="fill:#FFD15C;" d="M163.771,227.761c0,0-7.467,0-8.533,0l-1.067-1.067c0,0,1.067,2.133-1.067,2.133
	s-6.4,1.067-7.467-1.067c0,0-2.133,4.267,1.067,9.6c3.2,5.333,1.067,8.533,1.067,8.533s3.2,3.2,4.267,3.2c0,0,6.4,3.2,6.4,6.4
	c0,3.2-2.133,3.2-5.333,1.067c0,0,0,3.2-5.333,1.067c-5.333-2.133-12.8-10.667-13.867-11.733c0-1.067-4.267-12.8-4.267-12.8
	l8.533-18.133l11.733,1.067c0,0,2.133,1.067,6.4,1.067c2.133,0,6.4,0,7.467,0s1.067,0,2.133,0c2.133,1.067,5.333,3.2,6.4,4.267
	l4.267,3.2C177.638,227.761,174.438,232.028,163.771,227.761z"/>
<path style="fill:#CED6E0;" d="M217.105,98.694l26.667,2.133l-10.667,110.933l-39.467-36.267
	C194.705,175.494,166.971,97.628,217.105,98.694z"/>
<path style="fill:#67C5B8;" d="M239.505,154.161l-7.467,54.4l-17.067-11.733l-4.267-38.4c0,0,0-22.4,5.333-41.6l6.4-11.733v1.067
	l2.133,11.733c0,0,5.333,16,7.467,20.267C234.171,141.361,239.505,154.161,239.505,154.161z"/>
<path style="fill:#48B9A5;" d="M207.505,99.761l9.6-1.067h13.867c0,0-3.2,13.867-7.467,18.133c0,0-5.333-3.2-7.467,0
	c0,0-8.533-9.6-11.733-10.667C201.105,104.028,207.505,99.761,207.505,99.761z"/>
<ellipse style="fill:#F5B54C;" cx="366.438" cy="224.561" rx="14.933" ry="7.467"/>
<path style="fill:#FFD15C;" d="M373.905,245.894c-2.133,2.133,2.133,5.333,4.267,3.2l9.6-10.667l1.067-9.6l-3.2-1.067
	C385.638,227.761,377.105,241.628,373.905,245.894z"/>
<path style="fill:#F5B54C;" d="M384.571,229.894L384.571,229.894L384.571,229.894L384.571,229.894c-1.067,0-1.067,0-1.067,1.067l0,0
	L384.571,229.894c-1.067,1.067-1.067,2.133-1.067,2.133v1.067c0,1.067,0,1.067-1.067,2.133c0,1.067,0,2.133-1.067,3.2v1.067v1.067
	v1.067v1.067l0,0l0,0l0,0l0,0l0,0l0,0l0,0c0,0,0,0,0-1.067c0,0,0,0,0-1.067c0,0,0,0,0-1.067v-1.067c0-1.067,0-2.133,1.067-3.2
	c0,0,0-1.067,1.067-1.067c0,0,0,0,0-1.067c0,0,0,0,0-1.067L384.571,229.894L384.571,229.894L384.571,229.894z"/>
<path style="fill:#344A5E;" d="M186.171,86.961c0,0-6.4,3.2-8.533,5.333c-2.133,2.133-37.333,19.2-37.333,19.2
	s18.133,38.4,19.2,58.667c1.067,20.267,11.733,72.533-6.4,164.267c0,0,32,17.067,44.8,17.067c12.8,0,23.467-9.6,26.667-27.733
	c4.267-17.067,3.2-118.4,3.2-118.4l-28.8-55.467L186.171,86.961z"/>
<g>
	<path id="SVGCleanerId_0_1_" style="fill:#FFD15C;" d="M163.771,227.761c0,0-7.467,0-8.533,0l-1.067-1.067
		c0,0,1.067,2.133-1.067,2.133s-6.4,1.067-7.467-1.067c0,0-2.133,4.267,1.067,9.6c3.2,5.333,1.067,8.533,1.067,8.533
		s3.2,3.2,4.267,3.2c0,0,6.4,3.2,6.4,6.4c0,3.2-2.133,3.2-5.333,1.067c0,0,0,3.2-5.333,1.067
		c-5.333-2.133-12.8-10.667-13.867-11.733c0-1.067-4.267-12.8-4.267-12.8l8.533-18.133l11.733,1.067c0,0,2.133,1.067,6.4,1.067
		c2.133,0,6.4,0,7.467,0s1.067,0,2.133,0c2.133,1.067,5.333,3.2,6.4,4.267l4.267,3.2
		C177.638,227.761,174.438,232.028,163.771,227.761z"/>
</g>
<path style="fill:#425A6B;" d="M283.238,96.561l4.267-4.267c0,0,5.333-2.133,7.467,4.267c2.133,6.4,11.733,20.267,14.933,25.6
	s13.867,17.067,16,20.267c1.067,4.267,21.333,21.333,24.533,23.467c3.2,3.2,24.533,29.867,26.667,44.8
	c0,0-29.867-1.067-30.933,13.867c0,0-8.533-11.733-10.667-12.8c-2.133-1.067-6.4-3.2-11.733-10.667
	c-5.333-7.467-19.2-16-22.4-20.267c-3.2-4.267-10.667-20.267-10.667-20.267S271.505,102.961,283.238,96.561z"/>
<path style="fill:#344A5E;" d="M241.638,82.694c0,0,21.333,5.333,25.6,6.4c4.267,0,20.267,4.267,20.267,4.267
	s-2.133,54.4,2.133,68.267c0,0-6.4,85.333-3.2,109.867l-2.133,78.933c0,0-53.333,17.067-58.667-21.333
	c-5.333-38.4-1.067-103.467,0-109.867c1.067-6.4,14.933-56.533,14.933-56.533L241.638,82.694z"/>
<path style="fill:#E8EAE8;" d="M237.371,76.294c0,0-1.067,4.267-4.267,8.533c-3.2,4.267-14.933,13.867-14.933,13.867
	s14.933,2.133,20.267,17.067l5.333-28.8L237.371,76.294z"/>
<path style="fill:#425A6B;" d="M237.371,76.294c0,0,0,28.8,0,42.667s-8.533,89.6-11.733,99.2c0,0,13.867-39.467,17.067-48
	c3.2-8.533,12.8-55.467,13.867-62.933l-10.667-7.467l6.4-2.133C252.305,98.694,245.905,82.694,237.371,76.294z"/>
<path style="fill:#E8EAE8;" d="M217.105,98.694c0,0-14.933,8.533-19.2,21.333l-10.667-32l5.333-11.733c0,0,0,5.333,5.333,9.6
	C204.305,91.228,217.105,98.694,217.105,98.694z"/>
<path style="fill:#425A6B;" d="M191.505,78.428c0,0,1.067,13.867,9.6,44.8s27.733,82.133,27.733,82.133s-24.533-32-29.867-42.667
	s-20.267-46.933-20.267-46.933l8.533-9.6l-7.467-2.133c0,0,1.067-11.733,5.333-17.067C190.438,81.628,191.505,78.428,191.505,78.428
	z"/>
<rect x="227.771" y="271.494" style="fill:#F26F5A;" width="90.667" height="240"/>
<path style="fill:#F05640;" d="M355.771,239.494H190.438l11.733,25.6c2.133,4.267,5.333,6.4,10.667,6.4h120.533
	c4.267,0,8.533-2.133,10.667-6.4L355.771,239.494z"/>
<path style="fill:#F26F5A;" d="M396.305,240.561H150.971c-4.267,0-8.533-3.2-8.533-8.533c0-4.267,3.2-8.533,8.533-8.533h245.333
	c4.267,0,8.533,3.2,8.533,8.533C403.771,237.361,400.571,240.561,396.305,240.561z"/>
<path style="fill:#FFD15C;" d="M389.905,235.228l-2.133,5.333l-1.067,3.2c-1.067-1.067-2.133-1.067-2.133-2.133
	c-1.067-4.267,1.067-9.6,1.067-9.6c-1.067,0-4.267-5.333-6.4-7.467c0-1.067-1.067-1.067-1.067-1.067c-4.267,1.067-10.667,0-10.667,0
	c-1.067,1.067-1.067,1.067-2.133,1.067h-18.133c0-1.067,0-2.133,0-2.133c4.267-16,25.6-14.933,26.667-12.8
	c2.133,1.067,2.133,3.2,5.333,3.2s8.533,8.533,8.533,8.533s1.067,2.133,1.067,4.267c1.067,2.133,1.067,5.333,2.133,6.4
	C389.905,233.094,389.905,235.228,389.905,235.228z"/>
<g>
	<path style="fill:#425A6B;" d="M308.838,187.228c5.333,4.267,11.733,9.6,14.933,13.867c5.333,7.467,10.667,9.6,11.733,10.667
		c2.133,1.067,10.667,12.8,10.667,12.8c1.067-14.933,30.933-13.867,30.933-13.867c-1.067-6.4-5.333-14.933-10.667-23.467H308.838z"
		/>
	<path style="fill:#425A6B;" d="M111.505,206.428c-1.067,3.2-3.2,5.333-4.267,8.533c-2.133,4.267,2.133,14.933,4.267,19.2
		s19.2,25.6,22.4,26.667c3.2,1.067,7.467,2.133,7.467,2.133c-2.133,0-5.333-3.2-5.333-3.2c-5.333-7.467-2.133-28.8,2.133-36.267
		c4.267-7.467,19.2-3.2,19.2-3.2s0,0,0-7.467c0-1.067,0-3.2,0-6.4H111.505z"/>
</g>
<path style="fill:#344A5E;" d="M130.705,206.428c2.133,1.067,4.267,2.133,5.333,3.2c2.133,2.133,8.533,4.267,11.733,6.4
	c1.067,1.067,2.133,2.133,4.267,3.2c3.2,0,5.333,1.067,5.333,1.067s0,0,0-7.467c0-1.067,0-3.2,0-6.4L130.705,206.428
	L130.705,206.428z"/>
<path style="fill:#F5B54C;" d="M153.105,258.694c-1.067,0-1.067-1.067-1.067-1.067l-1.067-1.067c-1.067-1.067-2.133-1.067-3.2-2.133
	c-2.133-1.067-4.267-3.2-6.4-4.267l0,0l0,0l-1.067-3.2v-1.067v-1.067v1.067v1.067l1.067,3.2l0,0c2.133,1.067,4.267,3.2,6.4,4.267
	c1.067,1.067,2.133,1.067,3.2,2.133l1.067,1.067C152.038,257.628,153.105,257.628,153.105,258.694z"/>
<path style="fill:#425A6B;" d="M185.105,49.628c0,0-1.067-4.267,1.067-9.6c2.133-5.333,3.2-9.6,2.133-14.933
	c-1.067-5.333,0-8.533,3.2-7.467c5.333,1.067,32,3.2,38.4-1.067c5.333-2.133,6.4,5.333,6.4,8.533s4.267,13.867,4.267,17.067
	c0,3.2,0,4.267,0,4.267l3.2-2.133c0,0,1.067-21.333-5.333-28.8c-6.4-7.467-11.733-12.8-21.333-14.933
	c-8.533-2.133-21.333,2.133-26.667,7.467c-5.333,5.333-9.6,21.333-8.533,26.667c0,5.333,3.2,18.133,3.2,18.133V49.628z"/>
<g>
	<path style="fill:#FFD15C;" d="M248.038,50.694c-1.067,6.4-3.2,11.733-5.333,11.733c-2.133,0-3.2-5.333-2.133-11.733
		c1.067-6.4,3.2-11.733,5.333-11.733C248.038,38.961,249.105,44.294,248.038,50.694z"/>
	<path style="fill:#FFD15C;" d="M179.771,52.828c1.067,6.4,3.2,10.667,5.333,10.667c2.133,0,3.2-5.333,2.133-11.733
		c-1.067-6.4-3.2-11.733-5.333-11.733C180.838,41.094,179.771,46.428,179.771,52.828z"/>
</g>
<g>
</g>
<g>
</g>
<g>
</g>
<g>
</g>
<g>
</g>
<g>
</g>
<g>
</g>
<g>
</g>
<g>
</g>
<g>
</g>
<g>
</g>
<g>
</g>
<g>
</g>
<g>
</g>
<g>
</g>
</svg>
