<?xml version="1.0" encoding="iso-8859-1"?>
<!-- Generator: Adobe Illustrator 19.0.0, SVG Export Plug-In . SVG Version: 6.00 Build 0)  -->
<svg version="1.1" id="Capa_1" xmlns="http://www.w3.org/2000/svg" xmlns:xlink="http://www.w3.org/1999/xlink" x="0px" y="0px"
	 viewBox="0 0 513.067 513.067" style="enable-background:new 0 0 513.067 513.067;" xml:space="preserve">
<path style="fill:#E8EAE9;" d="M409.6,22.933V302.4c0,12.8-9.6,22.4-22.4,22.4H22.4C9.6,324.8,0,315.2,0,302.4V22.933
	c0-12.8,9.6-22.4,22.4-22.4h364.8C400,0.533,409.6,10.133,409.6,22.933z"/>
<g>
	<rect x="42.667" y="44.267" style="fill:#CED6E0;" width="324.267" height="29.867"/>
	<rect x="42.667" y="113.6" style="fill:#CED6E0;" width="174.933" height="29.867"/>
</g>
<path style="fill:#F7B64C;" d="M401.067,453.867c1.067,6.4,2.133,9.6,4.267,16c0,1.067,1.067,3.2,1.067,6.4h28.8
	c-2.133-16-3.2-28.8-3.2-28.8l-1.067-76.8c0,0-46.933-1.067-49.067,19.2c0,0,10.667,40.533,13.867,46.933
	S400,447.467,401.067,453.867z"/>
<path style="fill:#FFD15C;" d="M456.533,476.267c0-5.333,0-9.6-1.067-10.667c-2.133-8.533-3.2-18.133,0-27.733
	c3.2-8.533,10.667-43.733,10.667-43.733l-6.4-14.933l-44.8,4.267c0,0,0,39.467-1.067,60.8c-1.067,13.867,3.2,24.533,5.333,32
	L456.533,476.267L456.533,476.267z"/>
<g>
	<path style="fill:#344A5E;" d="M476.8,305.6l-3.2-6.4h-99.2c-3.2,12.8-2.133,38.4,0,50.133c2.133,12.8,6.4,43.733,6.4,43.733
		s30.933-2.133,51.2-2.133c20.267,0,34.133,3.2,34.133,3.2s3.2-18.133,8.533-41.6C478.933,329.067,476.8,305.6,476.8,305.6z"/>
	<path style="fill:#344A5E;" d="M257.067,189.333c0,0,0-13.867,13.867-26.667l4.267,10.667
		C276.267,173.333,269.867,187.2,257.067,189.333z"/>
</g>
<path style="fill:#FFD15C;" d="M226.133,150.933c0,0-1.067,0-2.133,1.067c-1.067,1.067-3.2,1.067-3.2-1.067s0-3.2,2.133-4.267
	c2.133-1.067,3.2-1.067,3.2-1.067s1.067,0-1.067-1.067c-2.133,0-3.2-1.067-3.2,0c0,0,1.067,3.2,0,3.2
	c-1.067,1.067-3.2,1.067-3.2-1.067c0-2.133-1.067-5.333,0-6.4c1.067-1.067,1.067-2.133,2.133-2.133s4.267,0,5.333,0
	c2.133,0,2.133,0,2.133,0s0-1.067-2.133-2.133c-2.133-1.067-4.267,0-5.333,0s-3.2,0-4.267,1.067c-1.067,1.067-1.067,2.133-3.2,2.133
	s-3.2-2.133-2.133-3.2c0-1.067,2.133-2.133,4.267-3.2c3.2-2.133,12.8,0,12.8,0s-4.267-2.133-5.333-3.2
	c-4.267,0-8.533-1.067-9.6-1.067c-2.133,0-2.133-2.133-1.067-3.2c2.133-1.067,8.533-1.067,11.733,0c3.2,1.067,5.333,1.067,8.533,3.2
	c3.2,1.067,6.4,4.267,8.533,5.333c2.133,1.067,3.2,4.267,4.267,6.4c1.067,2.133,4.267,8.533,6.4,9.6
	c2.133,1.067,22.4,14.933,22.4,14.933l-7.467,19.2c0,0-17.067-14.933-19.2-17.067S240,161.6,236.8,159.467
	C233.6,157.333,228.267,154.133,226.133,150.933z"/>
<g>
	<path style="fill:#344A5E;" d="M506.667,162.667c0,0,3.2,10.667,3.2,21.333s-2.133,28.8,0,35.2s1.067,27.733,2.133,35.2
		c0,7.467,0,18.133-4.267,22.4c-3.2,4.267-68.267,24.533-68.267,24.533s-5.333-26.667-10.667-30.933c0,0,12.8-2.133,17.067-3.2
		c4.267-1.067,13.867-3.2,18.133-4.267s13.867-4.267,17.067-4.267c0,0-4.267-14.933-4.267-22.4s-1.067-26.667,0-35.2
		s2.133-37.333,6.4-42.667C486.4,150.933,503.467,153.067,506.667,162.667z"/>
	<path style="fill:#344A5E;" d="M385.067,190.4c0,0-3.2,5.333-9.6,7.467c-6.4,2.133-59.733,14.933-59.733,14.933
		s-3.2,2.133-9.6-1.067c-6.4-3.2-49.067-22.4-49.067-22.4s12.8-16,13.867-26.667c0,0,43.733,23.467,50.133,21.333
		c6.4-2.133,23.467-10.667,27.733-11.733c4.267-1.067,40.533-25.6,40.533-25.6l11.733,2.133L385.067,190.4z"/>
</g>
<path style="fill:#FFD15C;" d="M417.067,73.067c0,0-2.133,7.467-1.067,16c1.067,8.533,1.067,20.267,13.867,34.133v7.467
	c0,8.533-4.267,17.067-11.733,21.333l0,0c-11.733,6.4-11.733,6.4-11.733,6.4l45.867,16L464,137.067c0,0-5.333-6.4-4.267-20.267
	s2.133-34.133,2.133-34.133s-7.467-26.667-19.2-28.8C430.933,51.733,423.467,60.267,417.067,73.067z"/>
<path style="fill:#66C6B9;" d="M445.867,159.467c-17.067,5.333-29.867,1.067-27.733-9.6l-20.267,35.2l-8.533,82.133l21.333,2.133"/>
<path style="fill:#F7B64C;" d="M443.733,123.2c-8.533,5.333-13.867-1.067-13.867-1.067v7.467c0,8.533-4.267,17.067-11.733,21.333
	l0,0C417.067,152,416,152,416,152c6.4-1.067,14.933-4.267,21.333-11.733c18.133-17.067,21.333-34.133,21.333-34.133
	S452.267,117.867,443.733,123.2z"/>
<path style="fill:#415A6B;" d="M429.867,129.6c0,0,1.067,7.467-3.2,13.867c-5.333,6.4-6.4,8.533-14.933,25.6
	c-8.533,17.067-9.6,34.133-9.6,45.867s-9.6,91.733-11.733,97.067c-2.133,5.333-7.467,0-14.933-6.4
	c-8.533-6.4-14.933-11.733-11.733-21.333c3.2-9.6,19.2-41.6,19.2-50.133c0-8.533-3.2-38.4-3.2-38.4s13.867-38.4,9.6-51.2
	c0,0,8.533-8.533,22.4-6.4C411.733,139.2,425.6,138.133,429.867,129.6z"/>
<path style="fill:#344A5E;" d="M401.067,224.533c-5.333,25.6-12.8,64-13.867,66.133c0,1.067-3.2,12.8,3.2,20.267
	C392.533,302.4,400,248,401.067,224.533z"/>
<path style="fill:#415A6B;" d="M506.667,162.667C502.4,154.133,492.8,155.2,492.8,155.2c-17.067,7.467-9.6,34.133-9.6,41.6
	s-8.533,29.867-19.2,49.067c-10.667,19.2,4.267,20.267,8.533,33.067c4.267,12.8,4.267,26.667,4.267,26.667s-3.2-3.2-12.8-4.267
	c-9.6-1.067-35.2,7.467-57.6,10.667c-22.4,4.267-16-22.4-16-22.4s12.8-67.2,18.133-84.267c5.333-16,17.067-43.733,30.933-53.333
	c12.8-9.6,21.333-24.533,21.333-24.533c7.467,8.533,26.667,16,36.267,21.333C506.667,156.267,506.667,162.667,506.667,162.667z"/>
<path style="fill:#FFD15C;" d="M449.067,285.333c0,0-9.6,1.067-11.733,2.133c-2.133,1.067-4.267,0-7.467,2.133
	c-2.133,3.2-11.733,9.6-14.933,11.733c-3.2,1.067-7.467,7.467-7.467,7.467c-2.133,3.2-6.4,0-4.267-2.133l5.333-6.4l-6.4,5.333
	c-3.2,3.2-7.467-1.067-4.267-4.267L403.2,296l-5.333,3.2c-2.133,2.133-5.333-2.133-4.267-4.267l5.333-5.333l-5.333,5.333
	c-2.133,2.133-5.333-2.133-3.2-4.267c0,0,4.267-6.4,8.533-9.6c4.267-3.2,14.933-8.533,21.333-9.6
	c6.4-1.067,21.333-4.267,21.333-4.267L449.067,285.333"/>
<path style="fill:#F3705A;" d="M416,89.067c0,0-2.133-10.667,4.267-19.2s17.067-11.733,17.067-11.733S443.733,60.267,448,72
	c4.267,11.733,8.533,29.867,9.6,32c1.067,2.133,1.067,27.733-2.133,41.6c-3.2,13.867-8.533,36.267-6.4,51.2
	c2.133,14.933,12.8,46.933,12.8,46.933s1.067-9.6,10.667-23.467c9.6-13.867,4.267-41.6,6.4-53.333
	c2.133-11.733,6.4-42.667,4.267-67.2S470.4,53.867,454.4,46.4s-35.2,9.6-39.467,17.067C410.667,70.933,413.867,82.667,416,89.067z"
	/>
<g>
	<path style="fill:#344A5E;" d="M512,236.267h-34.133c1.067,7.467,4.267,20.267,4.267,20.267c-3.2,0-12.8,3.2-17.067,4.267
		c-4.267,1.067-14.933,3.2-18.133,4.267c-4.267,1.067-17.067,3.2-17.067,3.2c6.4,5.333,10.667,30.933,10.667,30.933
		s64-20.267,68.267-24.533c4.267-4.267,4.267-14.933,4.267-22.4C512,250.133,512,243.733,512,236.267z"/>
	<path style="fill:#344A5E;" d="M456.533,512.533c1.067-14.933,2.133-28.8,2.133-32c-1.067-9.6-2.133-28.8-9.6-40.533
		c-6.4-11.733-16-11.733-16-11.733l-11.733,23.467l-5.333,60.8H456.533z"/>
	<path style="fill:#344A5E;" d="M286.933,512.533l-5.333-60.8l-11.733-23.467c0,0-9.6,0-16,11.733c-6.4,11.733-8.533,32-9.6,40.533
		c0,3.2,0,17.067,2.133,32L286.933,512.533L286.933,512.533z"/>
</g>
<path style="fill:#415A6B;" d="M254.933,512.533H448c1.067-6.4,2.133-10.667,2.133-10.667c5.333-25.6-13.867-73.6-18.133-73.6
	l-37.333-16L352,406.933l-44.8,5.333l-37.333,16c-4.267,0-23.467,49.067-18.133,73.6C252.8,501.867,253.867,506.133,254.933,512.533
	z"/>
<path style="fill:#F05540;" d="M326.4,489.067c5.333,7.467,11.733,21.333,11.733,21.333c-2.133-9.6,0-16,0-16
	c4.267,11.733,9.6,10.667,18.133,18.133h17.067c1.067-16,8.533-38.4,8.533-38.4c-3.2,11.733,0,38.4,0,38.4s0-10.667,2.133-24.533
	c2.133-13.867,9.6-22.4,9.6-22.4c-5.333,12.8-5.333,25.6-5.333,25.6c5.333-21.333,16-21.333,20.267-41.6
	c4.267-20.267-2.133-68.267-2.133-81.067c0-13.867-8.533-50.133-23.467-67.2c-16-17.067-37.333-14.933-37.333-14.933
	c-37.333,0-46.933,52.267-46.933,66.133s1.067,48,0,64c-2.133,16,5.333,36.267,9.6,48C309.333,476.267,320,482.667,326.4,489.067z"
	/>
<g>
	<path style="fill:#FFD15C;" d="M86.4,387.733c0,0,0,11.733-1.067,19.2s-1.067,7.467-1.067,7.467l70.4-7.467
		c0,0-3.2-9.6-4.267-20.267c0-10.667,0-10.667,0-10.667L86.4,387.733z"/>
	
		<ellipse transform="matrix(0.1067 -0.9943 0.9943 0.1067 -227.9443 457.7447)" style="fill:#FFD15C;" cx="140.775" cy="355.729" rx="17.067" ry="7.467"/>
	
		<ellipse transform="matrix(0.1067 0.9943 -0.9943 0.1067 422.5968 239.7868)" style="fill:#FFD15C;" cx="77.851" cy="355.08" rx="17.067" ry="7.467"/>
</g>
<path style="fill:#55C0EB;" d="M240,512.533c0-24.533-4.267-56.533-16-65.067c0,0-52.267-10.667-60.8-21.333
	c-2.133-2.133-3.2-5.333-5.333-8.533H83.2c-2.133,3.2-3.2,6.4-5.333,8.533c-8.533,11.733-60.8,21.333-60.8,21.333
	C4.267,456,0,488,0,512.533H240z"/>
<path style="fill:#8AD7F8;" d="M154.667,406.933c0,0,2.133,7.467,4.267,11.733c3.2,4.267,3.2,7.467,3.2,7.467s-2.133-3.2-9.6-4.267
	c-7.467-1.067-33.067,0-33.067,0s-26.667-1.067-33.067,0c-7.467,1.067-9.6,4.267-9.6,4.267s1.067-3.2,3.2-7.467
	c3.2-3.2,5.333-11.733,5.333-11.733C85.333,397.333,154.667,397.333,154.667,406.933z"/>
<path style="fill:#415A6B;" d="M161.067,349.333c-5.333,9.6-10.667,39.467-10.667,39.467c-3.2,9.6-60.8,9.6-64,0
	c0,0-5.333-30.933-10.667-39.467C70.4,341.867,67.2,286.4,118.4,286.4C169.6,286.4,165.333,340.8,161.067,349.333z"/>
<g>
</g>
<g>
</g>
<g>
</g>
<g>
</g>
<g>
</g>
<g>
</g>
<g>
</g>
<g>
</g>
<g>
</g>
<g>
</g>
<g>
</g>
<g>
</g>
<g>
</g>
<g>
</g>
<g>
</g>
</svg>
