<?xml version="1.0" encoding="iso-8859-1"?>
<!-- Generator: Adobe Illustrator 19.0.0, SVG Export Plug-In . SVG Version: 6.00 Build 0)  -->
<svg version="1.1" id="Capa_1" xmlns="http://www.w3.org/2000/svg" xmlns:xlink="http://www.w3.org/1999/xlink" x="0px" y="0px"
	 viewBox="0 0 508 508" style="enable-background:new 0 0 508 508;" xml:space="preserve">
<g>
	
		<ellipse transform="matrix(0.1962 0.9806 -0.9806 0.1962 517.3105 -149.0076)" style="fill:#F8B64C;" cx="349.543" cy="241.03" rx="14.101" ry="5.9"/>
	
		<ellipse transform="matrix(0.1962 -0.9806 0.9806 0.1962 116.8152 624.4841)" style="fill:#F8B64C;" cx="439.312" cy="240.991" rx="14.101" ry="5.9"/>
</g>
<path style="fill:#CDD6E0;" d="M508,398.862H280.8c0,0,3.7-47,19.1-67.7c0,0,0.6-0.3,1.8-0.7c8.6-3.2,45.5-17.2,62.9-30.5l1.7-8.3
	c0,0,7.1,14.6,22.9,16.7c1.6,0.3,3.4,0.3,5.2,0.3c1.9,0.1,3.6,0,5.2-0.3c15.9-2.2,22.9-16.7,22.9-16.7l1.7,8.3
	c17.4,13.3,54.4,27.3,62.9,30.5c1.2,0.4,1.9,0.7,1.9,0.7C504.3,351.862,508,398.862,508,398.862z"/>
<path style="fill:#ACB3BA;" d="M367.3,325.762l7.2,12.8l10.4-16.3l-2.5-2.9l-8.2,12.3l-9.6-17.8
	C365.1,317.262,365.9,321.162,367.3,325.762z"/>
<path style="fill:#F8B64C;" d="M422.5,291.662c0,0-7.1,14.5-22.9,16.8c-1.6,0.2-3.4,0.3-5.2,0.2c-1.8,0.1-3.6,0-5.2-0.2
	c-15.8-2.2-22.9-16.8-22.9-16.8s0.3-3,0.3-6.1c0.1-1.6,0.1-3.1-0.1-4.4c13.1,16.3,27.8,18.7,27.8,18.7s14.8-2.4,27.8-18.7
	c-0.1,1.3-0.2,2.9-0.1,4.4C422.2,288.662,422.5,291.662,422.5,291.662z"/>
<path style="fill:#F7AF48;" d="M422.2,285.662c-12.8,14.4-26.4,16.8-27.3,17l-0.4,0.1l-0.4-0.1c-1-0.2-14.5-2.6-27.3-17
	c0.1-1.6,0.1-3.1-0.1-4.4c13.1,16.3,27.8,18.7,27.8,18.7s14.8-2.4,27.8-18.7C422.1,282.462,422.1,284.062,422.2,285.662z"/>
<path style="fill:#FFD15C;" d="M441.4,228.362c-0.4,2.9-0.8,4.7-0.8,4.7c-8.2,60.7-46.3,66.9-46.3,66.9s-38-6.2-46.3-66.9
	c0,0-0.4-1.7-0.8-4.6v-0.1c-1.9-15.1-3.8-61.8,47-60.9C445.1,166.562,443.3,213.162,441.4,228.362z"/>
<path style="fill:#40596B;" d="M394.4,383.362v15.5h76.7l17.8-67.1l-1.7-1.3c-8.6-3.2-45.5-17.2-62.9-30.5h-0.1
	c0,0,4.4,15.1-9.6,43.4C414.5,343.362,402.4,366.762,394.4,383.362z"/>
<path style="fill:#ACB3BA;" d="M421.6,325.762l-7.2,12.8l-10.4-16.3l2.5-2.9l8.2,12.3l9.6-17.8
	C423.8,317.262,422.9,321.162,421.6,325.762z"/>
<path style="fill:#FFFFFF;" d="M399.4,327.562l5.6,34.4c-3.5,6.9-7.4,14.7-10.6,21.4c-3.2-6.6-7.1-14.5-10.6-21.4l5.6-34.4l-7.1-8.2
	l6.7-11c0.1,0,0.1,0,0.1,0c1.6,0.3,3.4,0.3,5.2,0.3c1.9,0.1,3.6,0,5.2-0.3c0,0,0,0,0.1,0l6.7,11L399.4,327.562z"/>
<g>
	<path style="fill:#334A5E;" d="M401.2,398.862h-83.4l-17.8-67.1l1.7-1.3c8.6-3.1,45.5-17.2,62.9-30.5l0,0h0.1
		c0,0-4.4,15.2,9.5,43.5c0,0,12.1,23.4,20.1,40C398,390.862,400.8,396.962,401.2,398.862z"/>
	<path style="fill:#334A5E;" d="M441.4,228.362l-2,1.9c0,0-2.1-24.4-13.2-41.6c0,0-7,10.3-31.8,10.5c-24.7-0.2-31.7-10.5-31.7-10.5
		c-11.2,17.1-13.3,41.6-13.3,41.6l-1.9-1.8v-0.1c-1.9-15.1-3.8-61.8,47-60.9C445.1,166.562,443.3,213.162,441.4,228.362z"/>
</g>
<g>
	
		<ellipse transform="matrix(0.1962 0.9806 -0.9806 0.1962 291.5586 126.3616)" style="fill:#F8B64C;" cx="68.705" cy="241.017" rx="14.101" ry="5.9"/>
	
		<ellipse transform="matrix(0.1962 -0.9806 0.9806 0.1962 -108.896 349.1227)" style="fill:#F8B64C;" cx="158.5" cy="240.983" rx="14.101" ry="5.9"/>
</g>
<path style="fill:#CDD6E0;" d="M227.2,398.862H0c0,0,3.7-47,19.1-67.7c0,0,0.6-0.3,1.8-0.7c8.6-3.2,45.5-17.2,62.9-30.5l1.7-8.3
	c0,0,7.1,14.6,22.9,16.7c1.6,0.3,3.4,0.3,5.2,0.3c1.9,0.1,3.6,0,5.2-0.3c15.9-2.2,22.9-16.7,22.9-16.7l1.7,8.3
	c17.4,13.3,54.4,27.3,62.9,30.5c1.2,0.4,1.9,0.7,1.9,0.7C223.5,351.862,227.2,398.862,227.2,398.862z"/>
<path style="fill:#ACB3BA;" d="M86.4,325.762l7.2,12.8l10.4-16.3l-2.5-2.9l-8.2,12.3l-9.6-17.8
	C84.2,317.262,85.1,321.162,86.4,325.762z"/>
<path style="fill:#F8B64C;" d="M141.7,291.662c0,0-7.1,14.5-22.9,16.8c-1.6,0.2-3.4,0.3-5.2,0.2c-1.8,0.1-3.6,0-5.2-0.2
	c-15.8-2.2-22.9-16.8-22.9-16.8s0.3-3,0.3-6.1c0.1-1.6,0.1-3.1-0.1-4.4c13.1,16.3,27.8,18.7,27.8,18.7s14.8-2.4,27.8-18.7
	c-0.1,1.3-0.2,2.9-0.1,4.4C141.4,288.662,141.7,291.662,141.7,291.662z"/>
<path style="fill:#F7AF48;" d="M141.4,285.662c-12.8,14.4-26.4,16.8-27.3,17l-0.4,0.1l-0.4-0.1c-1-0.2-14.5-2.6-27.3-17
	c0.1-1.6,0.1-3.1-0.1-4.4c13.1,16.3,27.8,18.7,27.8,18.7s14.8-2.4,27.8-18.7C141.3,282.462,141.3,284.062,141.4,285.662z"/>
<path style="fill:#FFD15C;" d="M160.6,228.362c-0.4,2.9-0.8,4.7-0.8,4.7c-8.2,60.7-46.3,66.9-46.3,66.9s-38-6.2-46.3-66.9
	c0,0-0.4-1.7-0.8-4.6v-0.1c-1.9-15.1-3.8-61.8,47-60.9C164.3,166.562,162.5,213.162,160.6,228.362z"/>
<path style="fill:#40596B;" d="M113.6,383.362v15.5h76.7l17.8-67.1l-1.7-1.3c-8.6-3.2-45.5-17.2-62.9-30.5h-0.1
	c0,0,4.4,15.1-9.6,43.4C133.7,343.362,121.6,366.762,113.6,383.362z"/>
<path style="fill:#ACB3BA;" d="M140.7,325.762l-7.2,12.8l-10.4-16.3l2.5-2.9l8.2,12.3l9.6-17.8
	C142.9,317.262,142.1,321.162,140.7,325.762z"/>
<path style="fill:#FFFFFF;" d="M118.6,327.562l5.6,34.4c-3.5,6.9-7.4,14.7-10.6,21.4c-3.2-6.6-7.1-14.5-10.6-21.4l5.6-34.4l-7.1-8.2
	l6.7-11c0.1,0,0.1,0,0.1,0c1.6,0.3,3.4,0.3,5.2,0.3c1.9,0.1,3.6,0,5.2-0.3c0,0,0,0,0.1,0l6.7,11L118.6,327.562z"/>
<g>
	<path style="fill:#334A5E;" d="M120.3,398.862H36.9l-17.7-67.1l1.7-1.3c8.6-3.1,45.5-17.2,62.9-30.5l0,0h0.1c0,0-4.4,15.2,9.5,43.5
		c0,0,12.1,23.4,20.1,40C117.2,390.862,119.9,396.962,120.3,398.862z"/>
	<path style="fill:#334A5E;" d="M160.6,228.362l-2,1.9c0,0-2.1-24.4-13.2-41.6c0,0-7,10.3-31.8,10.5c-24.7-0.2-31.7-10.5-31.7-10.5
		c-11.2,17.1-13.3,41.6-13.3,41.6l-1.9-1.8v-0.1c-1.9-15.1-3.8-61.8,47-60.9C164.3,166.562,162.5,213.162,160.6,228.362z"/>
</g>
<g>
	
		<ellipse transform="matrix(0.1962 0.9806 -0.9806 0.1962 318.0143 -27.2202)" style="fill:#F8B64C;" cx="175.61" cy="180.363" rx="24.601" ry="10.2"/>
	
		<ellipse transform="matrix(0.1962 -0.9806 0.9806 0.1962 90.3398 470.7551)" style="fill:#F8B64C;" cx="332.307" cy="180.275" rx="24.601" ry="10.2"/>
</g>
<path style="fill:#CDD6E0;" d="M452.3,455.862H55.7c0,0,6.5-82.1,33.3-118.2c0,0,1-0.4,3.1-1.2c15-5.6,79.5-30.1,109.9-53.3
	l2.9-14.5c0,0,12.3,25.4,39.9,29.2c2.8,0.4,5.9,0.6,9.1,0.4c3.2,0.1,6.3,0,9.1-0.4c27.8-3.8,39.9-29.2,39.9-29.2l2.9,14.5
	c30.4,23.2,94.9,47.7,109.9,53.3c2.1,0.7,3.2,1.2,3.2,1.2C445.8,373.762,452.3,455.862,452.3,455.862z"/>
<path style="fill:#ACB3BA;" d="M206.6,328.262l12.6,22.4l18.2-28.4l-4.4-5.1l-14.3,21.4l-16.7-31.1
	C202.8,313.362,204.2,320.362,206.6,328.262z"/>
<path style="fill:#F8B64C;" d="M303,268.662c0,0-12.4,25.4-39.9,29.2c-2.8,0.4-5.9,0.6-9.1,0.4c-3.2,0.2-6.3,0-9.1-0.4
	c-27.5-3.9-39.9-29.2-39.9-29.2s0.5-5.2,0.6-10.6c0.2-2.7,0.1-5.5-0.1-7.6c22.9,28.5,48.6,32.7,48.6,32.7s25.7-4.2,48.6-32.7
	c-0.2,2.3-0.3,5-0.1,7.7C302.6,263.562,303,268.662,303,268.662z"/>
<path style="fill:#F7AF48;" d="M302.5,258.162c-22.4,25.1-46,29.3-47.7,29.6l-0.8,0.1l-0.8-0.1c-1.7-0.3-25.4-4.5-47.7-29.7
	c0.2-2.7,0.1-5.5-0.1-7.6c22.9,28.5,48.6,32.7,48.6,32.7s25.7-4.2,48.6-32.7C302.4,252.762,302.3,255.462,302.5,258.162z"/>
<path style="fill:#FFD15C;" d="M336.1,158.262c-0.7,5.1-1.3,8.2-1.3,8.2c-14.3,106-80.7,116.8-80.7,116.8s-66.4-10.8-80.7-116.8
	c0,0-0.7-3-1.3-8v-0.1c-3.5-26.4-6.8-107.9,81.9-106.3C342.5,50.462,339.4,131.762,336.1,158.262z"/>
<path style="fill:#3DC9AE;" d="M254,428.862v27h133.8l31-117.1l-2.9-2.3c-15-5.6-79.5-30.1-109.9-53.3h-0.1c0,0,7.6,26.4-16.7,75.8
	C289.1,358.962,267.9,399.762,254,428.862z"/>
<path style="fill:#ACB3BA;" d="M301.4,328.262l-12.6,22.4l-18.2-28.4l4.4-5.1l14.3,21.4l16.7-31.1
	C305.2,313.362,303.8,320.362,301.4,328.262z"/>
<path style="fill:#FF7058;" d="M262.7,331.362l9.8,60.1c-6.2,12-12.9,25.7-18.5,37.3c-5.6-11.6-12.3-25.3-18.5-37.3l9.8-60.1
	l-12.3-14.3l11.7-19.2c0.1,0,0.1,0,0.1,0c2.8,0.4,5.9,0.6,9.1,0.4c3.2,0.1,6.3,0,9.1-0.4c0,0,0,0,0.1,0l11.7,19.2L262.7,331.362z"/>
<path style="fill:#4CDBC4;" d="M265.8,455.962H120.2l-31-117.2l2.9-2.3c14.9-5.5,79.5-30,109.9-53.3l0,0h0.2c0,0-7.7,26.5,16.6,75.9
	c0,0,21.2,40.8,35.1,69.8C260.3,441.862,265.1,452.562,265.8,455.962z"/>
<path style="fill:#334A5E;" d="M336.1,158.262l-3.5,3.4c0,0-3.6-42.6-23.1-72.5c0,0-12.3,18-55.6,18.4
	c-43.1-0.4-55.4-18.4-55.4-18.4c-19.5,29.9-23.2,72.5-23.2,72.5l-3.4-3.2v-0.1c-3.3-26.4-6.6-107.9,82.1-106.3
	C342.5,50.462,339.4,131.762,336.1,158.262z"/>
<g>
</g>
<g>
</g>
<g>
</g>
<g>
</g>
<g>
</g>
<g>
</g>
<g>
</g>
<g>
</g>
<g>
</g>
<g>
</g>
<g>
</g>
<g>
</g>
<g>
</g>
<g>
</g>
<g>
</g>
</svg>
