<?xml version="1.0" encoding="iso-8859-1"?>
<!-- Generator: Adobe Illustrator 19.0.0, SVG Export Plug-In . SVG Version: 6.00 Build 0)  -->
<svg version="1.1" id="Capa_1" xmlns="http://www.w3.org/2000/svg" xmlns:xlink="http://www.w3.org/1999/xlink" x="0px" y="0px"
	 viewBox="0 0 513.067 513.067" style="enable-background:new 0 0 513.067 513.067;" xml:space="preserve">
<path style="fill:#FFD15C;" d="M248.149,357.333l4.267-6.4c0,0,1.067-22.4-1.067-34.133l-36.267,7.467
	c0,0,4.267,20.267,4.267,23.467c0,4.267,1.067,8.533,1.067,8.533S246.016,363.733,248.149,357.333z"/>
<path style="fill:#E8EAE8;" d="M219.349,348.8c0,0,21.333,12.8,33.067,3.2c0,0-2.133,11.733-6.4,18.133
	c0,0-10.667,54.4-8.533,59.733c2.133,4.267,2.133,4.267,2.133,4.267l-1.067,14.933l-19.2,2.133c0,0,2.133-18.133,0-22.4
	c-2.133-4.267-12.8-36.267-8.533-54.4C216.149,358.4,219.349,348.8,219.349,348.8z"/>
<path style="fill:#344A5E;" d="M219.349,433.067c0,0,2.133,7.467,10.667,7.467s7.467-7.467,7.467-7.467s2.133,18.133,2.133,21.333
	c0,2.133,2.133,19.2,5.333,24.533c3.2,4.267,5.333,18.133,1.067,21.333c-5.333,3.2-17.067,4.267-26.667-6.4l-1.067-21.333
	l-4.267-2.133l1.067-18.133C215.083,452.267,210.816,434.133,219.349,433.067z"/>
<path style="fill:#FFD15C;" d="M257.749,307.2c0,0-2.133,22.4-3.2,27.733c0,5.333,3.2,21.333,3.2,21.333l28.8-3.2
	c0,0,5.333-33.067,8.533-42.667L257.749,307.2z"/>
<path style="fill:#E8EAE8;" d="M256.683,346.667c0,0,20.267,6.4,32-2.133c0,0,4.267,34.133-6.4,66.133
	c-11.733,32-14.933,38.4-14.933,38.4l-3.2,10.667l-16-3.2c0,0,4.267-23.467,6.4-49.067
	C257.749,381.867,256.683,355.2,256.683,346.667z"/>
<path style="fill:#344A5E;" d="M300.416,27.733l6.4,3.2c0,0,4.267,3.2,6.4,7.467c3.2,3.2,9.6,6.4,14.933,7.467
	c0,0-11.733,4.267-16,11.733c-4.267,6.4-46.933,13.867-46.933,13.867l-38.4-8.533c0,0-12.8-5.333-9.6-11.733
	c0,0,3.2-3.2,14.933-4.267c10.667-1.067,19.2-6.4,19.2-6.4s32-14.933,39.467-13.867C298.283,26.667,300.416,27.733,300.416,27.733z"
	/>
<path style="fill:#48B9A5;" d="M208.683,322.133c2.133,5.333,7.467,7.467,11.733,5.333c7.467-3.2,24.533-8.533,37.333-4.267
	c18.133,6.4,20.267-2.133,20.267-2.133s8.533-9.6,19.2-2.133c9.6,7.467,9.6-6.4,9.6-6.4c2.133-26.667-1.067-53.333-11.733-78.933
	h-76.8C214.016,234.667,201.216,300.8,208.683,322.133z"/>
<path style="fill:#F5B54C;" d="M252.416,46.933l-11.733,30.933V99.2c11.733,18.133,26.667,13.867,42.667,0l-13.867-39.467
	L252.416,46.933z"/>
<path style="fill:#E8EAE8;" d="M256.683,259.2c-30.933-2.133-29.867-16-41.6-11.733V83.2h20.267c4.267,9.6,11.733,16,21.333,16
	c9.6,0,17.067-6.4,21.333-16h19.2l1.067,172.8C279.083,245.333,272.683,260.267,256.683,259.2"/>
<path style="fill:#FFD15C;" d="M324.949,249.6L324.949,249.6c-1.067,4.267-1.067,9.6,0,13.867l1.067,4.267c0,1.067,0,2.133,0,3.2
	l-3.2,9.6c0,1.067-1.067,2.133-1.067,2.133l-7.467,6.4c-2.133,1.067-4.267,0-4.267-2.133c0-1.067,0-1.067,1.067-2.133l3.2-3.2
	l-3.2-3.2c0,0-1.067-1.067-1.067-2.133v-9.6c0,0,2.133-8.533,2.133-21.333L324.949,249.6z"/>
<path style="fill:#344A5E;" d="M326.016,254.933c2.133-6.4-13.867-3.2-13.867-3.2c-14.933-35.2-4.267-162.133-4.267-162.133l0,0
	c4.267,1.067,6.4,4.267,7.467,5.333l0,0c7.467,14.933,1.067,56.533,0,62.933c0,4.267,3.2,22.4,3.2,22.4s7.467,66.133,8.533,69.333
	C329.216,252.8,326.016,254.933,326.016,254.933z"/>
<path style="fill:#425A6B;" d="M312.149,250.667c0,0-1.067,38.4-3.2,52.267c-2.133,13.867-5.333,11.733-5.333,11.733
	s0-43.733-2.133-51.2c-1.067-4.267-10.667-21.333-18.133-35.2c-7.467-11.733-10.667-25.6-10.667-39.467
	c0-23.467,1.067-51.2,4.267-64c4.267-17.067,7.467-45.867,7.467-45.867c25.6-3.2,33.067,19.2,33.067,19.2
	c-8.533,19.2-10.667,57.6-11.733,72.533C305.749,185.6,312.149,250.667,312.149,250.667z"/>
<path style="fill:#FFD15C;" d="M206.549,249.6c-2.133-2.133-6.4-8.533-9.6-16l-8.533,8.533c3.2,3.2,5.333,7.467,6.4,11.733
	l1.067,4.267c0,1.067,1.067,2.133,2.133,3.2l5.333,6.4c1.067,1.067,1.067,1.067,2.133,1.067h1.067L206.549,249.6L206.549,249.6z"/>
<path style="fill:#344A5E;" d="M186.283,247.467c-2.133-6.4,13.867-3.2,13.867-3.2c14.933-35.2,4.267-154.667,4.267-154.667l0,0
	c-4.267,1.067-6.4,4.267-7.467,5.333l0,0c-7.467,14.933-2.133,56.533-1.067,62.933c0,4.267-3.2,22.4-3.2,22.4
	s-6.4,58.667-7.467,61.867C184.149,245.333,186.283,247.467,186.283,247.467z"/>
<path style="fill:#425A6B;" d="M201.216,250.667c0,0,1.067,38.4,3.2,52.267c2.133,13.867,5.333,11.733,5.333,11.733
	s0-43.733,2.133-51.2c1.067-4.267,10.667-21.333,18.133-35.2c7.467-11.733,10.667-25.6,10.667-39.467c0-23.467-1.067-51.2-4.267-64
	c-4.267-17.067-7.467-45.867-7.467-45.867c-25.6-3.2-33.067,19.2-33.067,19.2c8.533,19.2,10.667,57.6,11.733,72.533
	C207.616,185.6,201.216,250.667,201.216,250.667z"/>
<path style="fill:#F26F5A;" d="M283.349,22.4c5.333,1.067,16,5.333,19.2,10.667c4.267,5.333,6.4,10.667,7.467,17.067
	c6.4,24.533,5.333,52.267-4.267,75.733c-1.067,3.2,0,6.4,2.133,8.533c2.133,2.133,4.267,5.333,4.267,8.533
	c-2.133-2.133-4.267-4.267-7.467-6.4c2.133,3.2,3.2,6.4,4.267,9.6c-5.333,0-9.6-1.067-14.933-4.267c2.133,6.4,1.067,13.867-3.2,19.2
	c2.133-6.4,1.067-10.667,0-11.733c-2.133,6.4-5.333,6.4-7.467,9.6c2.133-4.267,3.2-8.533,1.067-12.8
	c-2.133-3.2-5.333-4.267-7.467-7.467c-2.133-2.133-2.133-6.4-2.133-9.6s1.067-6.4,2.133-9.6c3.2-12.8,2.133-26.667-4.267-38.4
	L283.349,22.4z"/>
<g>
	<path style="fill:#F05640;" d="M298.283,90.667L298.283,90.667c-1.067,1.067-1.067,2.133-1.067,2.133s0,1.067-1.067,1.067
		c0,0,0,1.067-1.067,2.133c0,1.067,0,1.067-1.067,2.133c0,1.067,0,1.067-1.067,2.133c0,1.067-1.067,3.2-1.067,5.333
		c0,1.067,0,2.133,0,3.2s0,2.133,0,3.2c0,2.133,0,4.267,0,6.4c0,2.133,1.067,4.267,1.067,6.4c1.067,2.133,1.067,4.267,2.133,5.333
		c1.067,2.133,2.133,3.2,4.267,4.267l1.067,1.067c0,0,1.067,0,1.067,1.067c1.067,0,2.133,1.067,2.133,1.067
		c2.133,0,3.2,0,4.267-1.067l0,0l0,0c0,0,1.067,0,1.067-1.067l1.067-1.067c1.067-1.067,1.067-2.133,1.067-3.2
		c0-1.067,0-1.067,0-2.133V128l0,0c0,0,0,0,0,1.067c0,0,0,1.067,1.067,2.133c0,1.067,0,2.133-1.067,3.2
		c0,1.067-1.067,1.067-1.067,2.133l-1.067,1.067l0,0c0,0,0,0-1.067,0c-1.067,1.067-3.2,1.067-5.333,1.067
		c-1.067,0-2.133,0-3.2-1.067c0,0-1.067,0-1.067-1.067l-1.067-1.067c-2.133-1.067-3.2-3.2-4.267-5.333
		c-1.067-2.133-2.133-4.267-2.133-5.333c-1.067-2.133-1.067-4.267-1.067-6.4c0-2.133,0-4.267,0-6.4c0-1.067,0-2.133,0-3.2
		c0-1.067,0-2.133,0-3.2c0-2.133,1.067-3.2,1.067-5.333c0-1.067,0-1.067,1.067-2.133c0-1.067,0-1.067,1.067-2.133
		c0-1.067,0-1.067,1.067-2.133c0,0,0-1.067,1.067-1.067C297.216,92.8,298.283,91.733,298.283,90.667L298.283,90.667L298.283,90.667z
		"/>
	<path style="fill:#F05640;" d="M282.283,92.8L282.283,92.8c0,1.067,1.067,2.133,1.067,3.2s0,2.133,0,3.2c0,1.067,0,3.2,0,4.267
		c0,2.133-1.067,3.2-1.067,5.333s-1.067,4.267-1.067,5.333c0,2.133-1.067,4.267-1.067,6.4c0,2.133,0,4.267,1.067,6.4
		c1.067,2.133,2.133,4.267,3.2,6.4c1.067,2.133,2.133,4.267,3.2,6.4c1.067,2.133,1.067,4.267,1.067,6.4c0,2.133,0,4.267-1.067,5.333
		c-1.067,2.133-2.133,3.2-3.2,4.267c-1.067,1.067-2.133,1.067-3.2,1.067s-2.133,0-2.133,0h-1.067l0,0c0,0,0,0,1.067,0
		c0,0,1.067,0,2.133,0c1.067,0,2.133-1.067,3.2-2.133l1.067-1.067c0,0,0-1.067,1.067-1.067v-1.067
		c1.067-1.067,1.067-3.2,1.067-5.333s-1.067-4.267-1.067-5.333c-1.067-2.133-2.133-4.267-3.2-5.333
		c-1.067-2.133-2.133-4.267-2.133-6.4c-3.2-3.2-3.2-5.333-3.2-7.467s1.067-4.267,1.067-6.4c1.067-2.133,1.067-4.267,2.133-5.333
		c1.067-2.133,1.067-3.2,1.067-5.333s0-3.2,0-4.267c0-1.067,0-2.133,0-3.2C282.283,94.933,282.283,93.867,282.283,92.8L282.283,92.8
		L282.283,92.8z"/>
</g>
<path style="fill:#FFD15C;" d="M253.483,39.467c0,0-3.2,22.4,3.2,29.867c6.4,7.467,11.733,11.733,12.8,12.8s6.4,4.267,10.667-3.2
	c0,0,13.867-8.533,13.867-23.467c0,0,1.067-2.133,0-3.2c0,0,2.133-1.067,2.133-3.2c0,0,6.4-18.133-11.733-22.4
	C266.283,21.333,253.483,39.467,253.483,39.467z"/>
<path style="fill:#F26F5A;" d="M289.749,25.6h-7.467c6.4,5.333,18.133,11.733,14.933,29.867c-3.2,18.133,6.4,17.067,6.4,17.067
	l2.133-28.8C305.749,43.733,300.416,30.933,289.749,25.6z"/>
<path style="fill:#F05640;" d="M295.083,53.333L295.083,53.333c1.067,1.067,1.067,2.133,2.133,3.2
	c1.067,1.067,1.067,2.133,2.133,4.267c0,0,1.067,2.133,1.067,4.267c1.067,4.267,1.067,8.533-1.067,13.867
	c-1.067,4.267-4.267,9.6-6.4,13.867c0,1.067,0,1.067-1.067,2.133l-1.067,2.133c0,1.067-1.067,2.133-1.067,4.267
	s-1.067,5.333-1.067,7.467s0,4.267,0,7.467c0,1.067,0,1.067,0,2.133v1.067c0,1.067,0,2.133,1.067,3.2
	c0,1.067,1.067,2.133,1.067,2.133c0,1.067,1.067,2.133,1.067,2.133c1.067,1.067,1.067,3.2,2.133,3.2
	c0,1.067,1.067,2.133,1.067,2.133v1.067l0,0c0,0,0,0-1.067-1.067c0,0-1.067-1.067-1.067-2.133c-1.067-1.067-1.067-2.133-2.133-3.2
	c0-1.067-1.067-1.067-1.067-2.133c0-1.067-1.067-2.133-1.067-3.2c0-1.067-1.067-2.133-1.067-3.2v-1.067c0-1.067,0-1.067,0-2.133
	c0-2.133-1.067-4.267-1.067-7.467c0-2.133,0-5.333,1.067-7.467c0-1.067,1.067-2.133,1.067-4.267l1.067-2.133
	c0-1.067,0-1.067,1.067-2.133c2.133-5.333,4.267-9.6,6.4-13.867c2.133-2.133,3.2-4.267,3.2-6.4c0-2.133,0-4.267,0-6.4
	c-1.067-2.133-1.067-4.267-1.067-5.333c-1.067-1.067-1.067-3.2-2.133-4.267C296.149,55.467,296.149,54.4,295.083,53.333
	L295.083,53.333L295.083,53.333z"/>
<g>
	<path style="fill:#F26F5A;" d="M284.416,25.6L284.416,25.6c1.067,1.067,1.067,1.067,2.133,2.133c1.067,1.067,3.2,3.2,4.267,5.333
		c1.067,2.133,2.133,4.267,3.2,6.4c1.067,2.133,1.067,3.2,1.067,3.2s0-1.067-1.067-3.2c-1.067-2.133-2.133-4.267-3.2-5.333
		c-1.067-2.133-3.2-3.2-4.267-5.333c-1.067-1.067-1.067-1.067-2.133-1.067C284.416,26.667,284.416,25.6,284.416,25.6L284.416,25.6z"
		/>
	<path style="fill:#F26F5A;" d="M257.749,56.533c-7.467,9.6-11.733,21.333-11.733,33.067c-4.267-5.333-3.2-24.533-4.267-40.533
		c7.467-4.267,14.933-7.467,22.4-11.733l0,0c0,0,17.067-13.867,23.467-10.667C287.616,26.667,270.549,46.933,257.749,56.533z"/>
	<path style="fill:#F26F5A;" d="M239.616,89.6c0,0,0,1.067,0,2.133c0,0,0,1.067,0,2.133s0,1.067,0,2.133c0,2.133,0,4.267,0,6.4
		c0,2.133-1.067,4.267-2.133,6.4c-1.067,1.067-1.067,2.133-2.133,3.2c-1.067,1.067-1.067,2.133-2.133,2.133
		c-1.067,1.067-1.067,2.133-1.067,3.2c0,1.067,0,2.133,0,3.2c0,2.133,1.067,3.2,1.067,4.267c0,1.067,1.067,1.067,1.067,1.067
		s0,0-1.067-1.067c0-1.067-1.067-2.133-1.067-4.267c0-1.067,0-2.133,0-3.2c0-1.067,1.067-2.133,1.067-3.2
		c1.067-1.067,1.067-2.133,2.133-2.133c1.067-1.067,1.067-2.133,2.133-3.2c1.067-2.133,2.133-4.267,2.133-6.4c0-2.133,0-4.267,0-6.4
		c0-1.067,0-2.133,0-2.133c0-1.067,0-1.067,0-2.133C239.616,90.667,239.616,89.6,239.616,89.6L239.616,89.6z"/>
	<path style="fill:#F26F5A;" d="M269.483,41.6c0,0-2.133,3.2-5.333,8.533c-1.067,2.133-3.2,5.333-5.333,8.533
		c-2.133,3.2-4.267,6.4-6.4,9.6c-1.067,2.133-2.133,3.2-2.133,5.333c-1.067,2.133-1.067,3.2-2.133,5.333
		c0,2.133-1.067,3.2-1.067,5.333s0,3.2,0,4.267c0,1.067,0,3.2,1.067,4.267c1.067,1.067,1.067,2.133,2.133,2.133
		c1.067,0,1.067,1.067,2.133,1.067h1.067c0,0,0,0-1.067,0c0,0-1.067,0-2.133-1.067c-1.067,0-2.133-1.067-2.133-2.133
		c-1.067-1.067-1.067-2.133-1.067-4.267c0-1.067,0-3.2,0-5.333s0-3.2,1.067-5.333c0-2.133,1.067-3.2,2.133-5.333
		c1.067-2.133,1.067-3.2,2.133-5.333c2.133-3.2,4.267-6.4,5.333-9.6c2.133-3.2,3.2-6.4,5.333-8.533
		c2.133-5.333,4.267-8.533,4.267-8.533L269.483,41.6z"/>
	<path style="fill:#F26F5A;" d="M243.883,80c0,0,0,1.067,0,2.133s0,3.2,0,5.333c0,2.133,1.067,5.333,1.067,8.533
		c1.067,3.2,2.133,6.4,3.2,9.6c1.067,3.2,2.133,6.4,3.2,9.6c1.067,3.2,1.067,6.4,0,8.533c-1.067,2.133-2.133,4.267-3.2,5.333
		l-1.067,1.067l0,0l0,0l1.067-1.067c1.067-1.067,2.133-3.2,2.133-5.333c1.067-2.133,1.067-5.333,0-8.533
		c-1.067-3.2-2.133-6.4-3.2-9.6c-1.067-3.2-3.2-6.4-3.2-9.6c-1.067-3.2-1.067-6.4-2.133-8.533c0-2.133,0-4.267,0-6.4
		c0-1.067,0-2.133,0-2.133L243.883,80z"/>
	<path style="fill:#F26F5A;" d="M242.816,78.933c0,6.4,2.133,12.8,4.267,18.133c2.133,6.4,3.2,12.8,0,18.133
		c-1.067,2.133-3.2,4.267-4.267,6.4c-1.067,2.133-2.133,4.267-2.133,6.4c-2.133-5.333-1.067-10.667,2.133-14.933
		c-1.067,2.133-3.2,3.2-4.267,4.267c-3.2,4.267-2.133,10.667,1.067,14.933c-5.333-2.133-8.533-9.6-7.467-14.933
		c1.067-2.133,2.133-4.267,3.2-6.4c3.2-5.333,3.2-11.733,2.133-17.067c-1.067-6.4-3.2-11.733-7.467-16"/>
	<path style="fill:#F26F5A;" d="M255.616,42.667c-8.533,1.067-16,5.333-21.333,11.733c-5.333,6.4-7.467,14.933-6.4,23.467
		c0,4.267,2.133,8.533,2.133,12.8s-1.067,9.6-4.267,11.733c7.467-1.067,13.867-8.533,12.8-17.067c0,4.267-2.133,9.6-5.333,12.8
		c-2.133,2.133-5.333,3.2-6.4,5.333c-2.133,3.2-4.267,6.4-4.267,10.667s1.067,8.533,3.2,11.733c-2.133-4.267,0-9.6,3.2-12.8
		c3.2-3.2,6.4-6.4,8.533-10.667c3.2-6.4,2.133-13.867,4.267-21.333c0-2.133,1.067-4.267,2.133-6.4
		c4.267-10.667,8.533-20.267,13.867-28.8"/>
</g>
<path style="fill:#344A5E;" d="M244.949,38.4V27.733c0-8.533,4.267-17.067,11.733-22.4c0,0,1.067,0,1.067-1.067
	c6.4-4.267,13.867-5.333,21.333-3.2c8.533,2.133,20.267,8.533,22.4,25.6h-26.667L244.949,38.4z"/>
<g>
	<path style="fill:#425A6B;" d="M217.216,50.133c0,0,4.267-3.2,8.533-1.067c4.267,2.133,22.4,8.533,30.933,1.067
		c7.467-7.467,20.267-23.467,33.067-23.467c1.067,0,1.067,0,2.133,0c3.2,0,10.667,2.133,14.933,4.267c0,0-5.333-3.2-6.4-4.267
		c0,0-8.533-8.533-26.667-2.133c0,0-17.067,6.4-25.6,9.6c-4.267,1.067-7.467,3.2-11.733,5.333
		C230.016,42.667,219.349,48,217.216,50.133z"/>
	<path style="fill:#425A6B;" d="M239.616,158.933c0,0,0,53.333,1.067,68.267c0,11.733-3.2,24.533-12.8,32
		c-1.067,0-1.067,1.067-1.067,2.133c-2.133,7.467-5.333,8.533-9.6,5.333s-6.4,18.133-6.4,18.133l-4.267-38.4L239.616,158.933z"/>
	<path style="fill:#425A6B;" d="M251.349,444.8c0,0-3.2,1.067,2.133,2.133c6.4,1.067,13.867,0,14.933-1.067c0,0,0,12.8-1.067,14.933
		c0,0,4.267,9.6,1.067,14.933c-3.2,5.333-4.267,8.533-4.267,12.8c0,4.267,1.067,12.8,0,14.933c0,2.133-3.2,9.6-11.733,9.6
		c-8.533-1.067-16-1.067-17.067-4.267c-2.133-4.267-1.067-12.8,1.067-16c2.133-3.2,4.267-12.8,4.267-18.133
		c0-4.267,2.133-14.933,2.133-14.933S244.949,444.8,251.349,444.8z"/>
</g>
<g>
</g>
<g>
</g>
<g>
</g>
<g>
</g>
<g>
</g>
<g>
</g>
<g>
</g>
<g>
</g>
<g>
</g>
<g>
</g>
<g>
</g>
<g>
</g>
<g>
</g>
<g>
</g>
<g>
</g>
</svg>
